<svg xmlns="http://www.w3.org/2000/svg" viewBox="0 0 496 130"><defs><style>.cls-1{opacity:0.33;}.cls-2,.cls-4{fill:none;stroke:#d10000;stroke-width:3px;}.cls-2{stroke-miterlimit:10;}.cls-3{font-size:12px;fill:#9e0000;font-family:CourierNewPS-BoldMT, Courier New;font-weight:700;}.cls-4{stroke-linecap:round;stroke-linejoin:bevel;}</style></defs><title>camelCase-BEM-answer</title><g id="Layer_1" data-name="Layer 1"><path d="M22.82,57.08h.32a1.16,1.16,0,0,1,.84.35,1.19,1.19,0,0,1,0,1.69,1.17,1.17,0,0,1-.84.34h-.32a1.15,1.15,0,0,1-.84-.35,1.19,1.19,0,0,1,0-1.69A1.17,1.17,0,0,1,22.82,57.08Z"/><path d="M35.88,59.19V58.13a5.24,5.24,0,0,1-3.43,1.35,3,3,0,0,1-2.07-.67,2.13,2.13,0,0,1-.75-1.65,2.36,2.36,0,0,1,1-1.87,4.46,4.46,0,0,1,2.87-.8,10.13,10.13,0,0,1,1.11.07q.6.07,1.29.21V53.58a1.32,1.32,0,0,0-.56-1.05,2.67,2.67,0,0,0-1.68-.45,8.51,8.51,0,0,0-2.41.5,1.65,1.65,0,0,1-.36.09.32.32,0,0,1-.24-.1.37.37,0,0,1-.1-.26.32.32,0,0,1,.09-.24,3,3,0,0,1,1-.36,8.74,8.74,0,0,1,2.07-.37,3.18,3.18,0,0,1,2.18.69,2,2,0,0,1,.78,1.56v4.88h1a.58.58,0,0,1,.39.1.37.37,0,0,1,0,.53.56.56,0,0,1-.39.11Zm0-3.67a7,7,0,0,0-1.1-.22,10.13,10.13,0,0,0-1.22-.07,4,4,0,0,0-2.51.69,1.52,1.52,0,0,0-.68,1.24,1.43,1.43,0,0,0,.52,1.12,2.25,2.25,0,0,0,1.52.46,4.17,4.17,0,0,0,1.78-.38,6.42,6.42,0,0,0,1.69-1.22Z"/><path d="M48.31,53.58v1.05H40.79V53.58Z"/><path d="M52.55,48.18v4.89a4,4,0,0,1,3.22-1.74,3.73,3.73,0,0,1,2.76,1.17,4,4,0,0,1,1.15,2.87,4,4,0,0,1-1.16,2.91,3.71,3.71,0,0,1-2.75,1.19,3.88,3.88,0,0,1-3.22-1.74v1.45H50.82a.55.55,0,0,1-.38-.11.37.37,0,0,1,0-.53.57.57,0,0,1,.38-.1h1V48.93h-1a.55.55,0,0,1-.38-.11.35.35,0,0,1-.11-.27.34.34,0,0,1,.11-.26.55.55,0,0,1,.38-.11Zm6.4,7.23A3.24,3.24,0,0,0,58,53a3.07,3.07,0,0,0-4.48,0,3.4,3.4,0,0,0,0,4.73,3.07,3.07,0,0,0,4.48,0A3.24,3.24,0,0,0,58.95,55.41Z"/><path d="M66.49,48.18V58.46h2.9a.58.58,0,0,1,.39.1.37.37,0,0,1,0,.53.56.56,0,0,1-.39.11H62.85a.55.55,0,0,1-.38-.11.37.37,0,0,1,0-.53.57.57,0,0,1,.38-.1h2.9V48.93H63.63a.56.56,0,0,1-.38-.11.35.35,0,0,1-.12-.27.34.34,0,0,1,.11-.26.56.56,0,0,1,.39-.11Z"/><path d="M81,55.41a3.9,3.9,0,0,1-1.21,2.88,4.15,4.15,0,0,1-5.83,0,4,4,0,0,1,0-5.76,4.15,4.15,0,0,1,5.83,0A3.91,3.91,0,0,1,81,55.41Zm-.75,0a3.19,3.19,0,0,0-1-2.36,3.42,3.42,0,0,0-4.78,0,3.3,3.3,0,0,0,0,4.71,3.41,3.41,0,0,0,4.78,0A3.2,3.2,0,0,0,80.27,55.41Z"/><path d="M90.76,52.34v-.25a.56.56,0,0,1,.11-.39.34.34,0,0,1,.26-.11.35.35,0,0,1,.27.11.56.56,0,0,1,.11.39v1.67a.61.61,0,0,1-.11.39.36.36,0,0,1-.52,0,.52.52,0,0,1-.12-.34,1.72,1.72,0,0,0-.82-1.19,3.43,3.43,0,0,0-2.07-.56,3.05,3.05,0,0,0-2.49,1,3.58,3.58,0,0,0-.85,2.35,3.18,3.18,0,0,0,.94,2.36,3.3,3.3,0,0,0,2.43.93,5.21,5.21,0,0,0,1.75-.32,4.4,4.4,0,0,0,1.61-1,.51.51,0,0,1,.32-.18.34.34,0,0,1,.35.35q0,.38-.89,1a5.68,5.68,0,0,1-3.19.94,4,4,0,0,1-2.93-1.14,3.89,3.89,0,0,1-1.15-2.88,4,4,0,0,1,4.12-4.13A4.15,4.15,0,0,1,90.76,52.34Z"/><path d="M97,55.91v3.28H95.24a.55.55,0,0,1-.38-.11.37.37,0,0,1,0-.53.57.57,0,0,1,.38-.1h1V48.93h-1a.55.55,0,0,1-.38-.11.35.35,0,0,1-.11-.27.34.34,0,0,1,.11-.26.55.55,0,0,1,.38-.11H97V55l3.13-2.63h-.38a.55.55,0,0,1-.38-.11.34.34,0,0,1-.11-.26.36.36,0,0,1,.11-.27.55.55,0,0,1,.38-.11h2.36a.56.56,0,0,1,.39.11.35.35,0,0,1,.11.27.34.34,0,0,1-.11.26.56.56,0,0,1-.39.11h-.85l-2.88,2.4L102,58.46h.85a.58.58,0,0,1,.39.1.37.37,0,0,1,0,.53.56.56,0,0,1-.39.11h-2.39a.55.55,0,0,1-.38-.11.37.37,0,0,1,0-.53.57.57,0,0,1,.38-.1H101L97.81,55.2Z"/><path d="M112.86,59.19h-.95L106.48,50v8.45h1.36a.58.58,0,0,1,.39.1.37.37,0,0,1,0,.53.56.56,0,0,1-.39.11h-2.71a.56.56,0,0,1-.39-.11.37.37,0,0,1,0-.53.58.58,0,0,1,.39-.1h.61V49.66h-1a.57.57,0,0,1-.38-.1.37.37,0,0,1,0-.54.57.57,0,0,1,.38-.1h1.93l5.44,9.2V49.66h-1.36a.56.56,0,0,1-.38-.1.34.34,0,0,1-.11-.27.35.35,0,0,1,.11-.27.56.56,0,0,1,.38-.1h2.72a.57.57,0,0,1,.38.1.37.37,0,0,1,0,.54.57.57,0,0,1-.38.1h-.62Z"/><path d="M122.16,59.19V58.13a5.24,5.24,0,0,1-3.43,1.35,3,3,0,0,1-2.07-.67,2.13,2.13,0,0,1-.75-1.65,2.36,2.36,0,0,1,1-1.87,4.46,4.46,0,0,1,2.87-.8,10.13,10.13,0,0,1,1.11.07q.6.07,1.29.21V53.58a1.32,1.32,0,0,0-.56-1.05,2.67,2.67,0,0,0-1.68-.45,8.51,8.51,0,0,0-2.41.5,1.65,1.65,0,0,1-.36.09.32.32,0,0,1-.24-.1.37.37,0,0,1-.1-.26.32.32,0,0,1,.09-.24,3,3,0,0,1,1-.36,8.74,8.74,0,0,1,2.07-.37,3.18,3.18,0,0,1,2.18.69,2,2,0,0,1,.78,1.56v4.88h1a.58.58,0,0,1,.39.1.37.37,0,0,1,0,.53.56.56,0,0,1-.39.11Zm0-3.67a7,7,0,0,0-1.1-.22,10.13,10.13,0,0,0-1.22-.07,4,4,0,0,0-2.51.69,1.52,1.52,0,0,0-.68,1.24,1.43,1.43,0,0,0,.52,1.12,2.25,2.25,0,0,0,1.52.46,4.17,4.17,0,0,0,1.78-.38,6.42,6.42,0,0,0,1.69-1.22Z"/><path d="M127.47,51.59v.75a2.64,2.64,0,0,1,1.89-1,1.69,1.69,0,0,1,1,.3,2.27,2.27,0,0,1,.72.92,3.83,3.83,0,0,1,1-.92,2,2,0,0,1,1-.3,1.64,1.64,0,0,1,1.27.52A2.09,2.09,0,0,1,135,53.3v5.15h.62a.56.56,0,0,1,.38.1.37.37,0,0,1,0,.53.55.55,0,0,1-.38.11h-1.36V53.37a1.31,1.31,0,0,0-.34-.93,1,1,0,0,0-.79-.37,1.54,1.54,0,0,0-.85.3,4.21,4.21,0,0,0-1,1.19v4.89h.61a.57.57,0,0,1,.38.1.37.37,0,0,1,0,.53.55.55,0,0,1-.38.11h-1.36V53.43a1.39,1.39,0,0,0-.35-1,1,1,0,0,0-.78-.38,1.4,1.4,0,0,0-.78.25,4.49,4.49,0,0,0-1.12,1.24v4.89h.62a.57.57,0,0,1,.38.1.37.37,0,0,1,0,.53.55.55,0,0,1-.38.11h-2a.55.55,0,0,1-.38-.11.37.37,0,0,1,0-.53.57.57,0,0,1,.38-.1h.62V52.34h-.62a.55.55,0,0,1-.38-.11.35.35,0,0,1-.11-.27.34.34,0,0,1,.11-.26.55.55,0,0,1,.38-.11Z"/><path d="M145.6,55.57h-7.51a3.57,3.57,0,0,0,1.2,2.3,3.65,3.65,0,0,0,2.49.87,6,6,0,0,0,1.73-.27,4.44,4.44,0,0,0,1.47-.72.5.5,0,0,1,.29-.13.33.33,0,0,1,.25.11.36.36,0,0,1,.1.26.41.41,0,0,1-.14.29,3.93,3.93,0,0,1-1.5.82,6.54,6.54,0,0,1-2.21.38,4.34,4.34,0,0,1-3.16-1.24,4.05,4.05,0,0,1-1.27-3,3.7,3.7,0,0,1,1.19-2.75,4.07,4.07,0,0,1,2.94-1.15,4,4,0,0,1,3,1.18A4.11,4.11,0,0,1,145.6,55.57Zm-.75-.75a3.21,3.21,0,0,0-1.15-2,3.63,3.63,0,0,0-4.44,0,3.23,3.23,0,0,0-1.16,2Z"/><path d="M157.29,64.12h-9.8a.56.56,0,0,1-.38-.1.37.37,0,0,1,0-.54.56.56,0,0,1,.38-.1h9.8a.56.56,0,0,1,.38.1.38.38,0,0,1,0,.54A.56.56,0,0,1,157.29,64.12Z"/><path d="M168.08,64.12h-9.8a.56.56,0,0,1-.38-.1.37.37,0,0,1,0-.54.56.56,0,0,1,.38-.1h9.8a.56.56,0,0,1,.38.1.38.38,0,0,1,0,.54A.56.56,0,0,1,168.08,64.12Z"/><path d="M177.95,55.57h-7.51a3.57,3.57,0,0,0,1.2,2.3,3.65,3.65,0,0,0,2.49.87,6,6,0,0,0,1.73-.27,4.44,4.44,0,0,0,1.47-.72.5.5,0,0,1,.29-.13.33.33,0,0,1,.25.11.36.36,0,0,1,.1.26.41.41,0,0,1-.14.29,3.93,3.93,0,0,1-1.5.82,6.54,6.54,0,0,1-2.21.38A4.34,4.34,0,0,1,171,58.24a4.05,4.05,0,0,1-1.27-3,3.7,3.7,0,0,1,1.19-2.75,4.07,4.07,0,0,1,2.94-1.15,4,4,0,0,1,3,1.18A4.11,4.11,0,0,1,177.95,55.57Zm-.75-.75a3.21,3.21,0,0,0-1.15-2,3.63,3.63,0,0,0-4.44,0,3.23,3.23,0,0,0-1.16,2Z"/><path d="M185.12,48.18V58.46H188a.58.58,0,0,1,.39.1.37.37,0,0,1,0,.53.56.56,0,0,1-.39.11h-6.53a.55.55,0,0,1-.38-.11.37.37,0,0,1,0-.53.57.57,0,0,1,.38-.1h2.9V48.93h-2.12a.56.56,0,0,1-.38-.11.35.35,0,0,1-.12-.27.34.34,0,0,1,.11-.26.56.56,0,0,1,.39-.11Z"/><path d="M199.52,55.57H192a3.57,3.57,0,0,0,1.2,2.3,3.65,3.65,0,0,0,2.49.87,6,6,0,0,0,1.73-.27,4.44,4.44,0,0,0,1.47-.72.5.5,0,0,1,.29-.13.33.33,0,0,1,.25.11.36.36,0,0,1,.1.26.41.41,0,0,1-.14.29,3.93,3.93,0,0,1-1.5.82,6.54,6.54,0,0,1-2.21.38,4.34,4.34,0,0,1-3.16-1.24,4.05,4.05,0,0,1-1.27-3,3.7,3.7,0,0,1,1.19-2.75,4.07,4.07,0,0,1,2.94-1.15,4,4,0,0,1,3,1.18A4.11,4.11,0,0,1,199.52,55.57Zm-.75-.75a3.21,3.21,0,0,0-1.15-2,3.63,3.63,0,0,0-4.44,0,3.23,3.23,0,0,0-1.16,2Z"/><path d="M203,51.59v.75a2.64,2.64,0,0,1,1.89-1,1.69,1.69,0,0,1,1,.3,2.27,2.27,0,0,1,.72.92,3.83,3.83,0,0,1,1-.92,2,2,0,0,1,1-.3,1.64,1.64,0,0,1,1.27.52,2.09,2.09,0,0,1,.62,1.46v5.15h.62a.56.56,0,0,1,.38.1.37.37,0,0,1,0,.53.55.55,0,0,1-.38.11h-1.36V53.37a1.31,1.31,0,0,0-.34-.93,1,1,0,0,0-.79-.37,1.54,1.54,0,0,0-.85.3,4.21,4.21,0,0,0-1,1.19v4.89h.61a.57.57,0,0,1,.38.1.37.37,0,0,1,0,.53.55.55,0,0,1-.38.11H206V53.43a1.39,1.39,0,0,0-.35-1,1,1,0,0,0-.78-.38,1.4,1.4,0,0,0-.78.25A4.49,4.49,0,0,0,203,53.57v4.89h.62a.57.57,0,0,1,.38.1.37.37,0,0,1,0,.53.55.55,0,0,1-.38.11h-2a.55.55,0,0,1-.38-.11.37.37,0,0,1,0-.53.57.57,0,0,1,.38-.1h.62V52.34h-.62a.55.55,0,0,1-.38-.11.35.35,0,0,1-.11-.27.34.34,0,0,1,.11-.26.55.55,0,0,1,.38-.11Z"/><path d="M221.09,55.57h-7.51a3.57,3.57,0,0,0,1.2,2.3,3.65,3.65,0,0,0,2.49.87,6,6,0,0,0,1.73-.27,4.44,4.44,0,0,0,1.47-.72.5.5,0,0,1,.29-.13.33.33,0,0,1,.25.11.36.36,0,0,1,.1.26.41.41,0,0,1-.14.29,3.93,3.93,0,0,1-1.5.82,6.54,6.54,0,0,1-2.21.38,4.34,4.34,0,0,1-3.16-1.24,4.05,4.05,0,0,1-1.27-3A3.7,3.7,0,0,1,214,52.48,4.07,4.07,0,0,1,217,51.33a4,4,0,0,1,3,1.18A4.11,4.11,0,0,1,221.09,55.57Zm-.75-.75a3.21,3.21,0,0,0-1.15-2,3.63,3.63,0,0,0-4.44,0,3.23,3.23,0,0,0-1.16,2Z"/><path d="M225.5,51.59v1.11a5.32,5.32,0,0,1,1.4-1.08,3.22,3.22,0,0,1,1.4-.3,3.28,3.28,0,0,1,1.54.36,2.52,2.52,0,0,1,.89.87,2.26,2.26,0,0,1,.4,1.25v4.64h.62a.56.56,0,0,1,.38.1.37.37,0,0,1,0,.53.55.55,0,0,1-.38.11h-2a.56.56,0,0,1-.39-.11.37.37,0,0,1,0-.53.58.58,0,0,1,.39-.1h.61V53.94a1.75,1.75,0,0,0-.57-1.32,2.13,2.13,0,0,0-1.53-.54,2.59,2.59,0,0,0-1.26.29,6.79,6.79,0,0,0-1.53,1.46v4.62h.83a.57.57,0,0,1,.38.1.37.37,0,0,1,0,.53.55.55,0,0,1-.38.11h-2.4a.55.55,0,0,1-.38-.11.37.37,0,0,1,0-.53.56.56,0,0,1,.38-.1h.83V52.34h-.62a.55.55,0,0,1-.38-.11.35.35,0,0,1-.11-.27.34.34,0,0,1,.11-.26.55.55,0,0,1,.38-.11Z"/><path d="M237.16,51.59h4a.55.55,0,0,1,.38.11.35.35,0,0,1,.11.27.34.34,0,0,1-.11.26.55.55,0,0,1-.38.11h-4v4.91a1.34,1.34,0,0,0,.51,1.07,2.29,2.29,0,0,0,1.5.43,6.49,6.49,0,0,0,1.61-.22,5.47,5.47,0,0,0,1.35-.5.57.57,0,0,1,.29-.11.33.33,0,0,1,.25.11.36.36,0,0,1,.11.26.34.34,0,0,1-.11.25,3.65,3.65,0,0,1-1.36.63,7,7,0,0,1-2.08.34,3.21,3.21,0,0,1-2.05-.61,2,2,0,0,1-.76-1.63V52.34H235a.55.55,0,0,1-.38-.11.35.35,0,0,1-.11-.27.35.35,0,0,1,.11-.26.55.55,0,0,1,.38-.11h1.36V49.42a.55.55,0,0,1,.1-.38.35.35,0,0,1,.26-.11.36.36,0,0,1,.27.11.55.55,0,0,1,.1.38Z"/><path d="M253.06,59.19h-.95L246.69,50v8.45H248a.58.58,0,0,1,.39.1.37.37,0,0,1,0,.53.56.56,0,0,1-.39.11h-2.71a.56.56,0,0,1-.39-.11.37.37,0,0,1,0-.53.58.58,0,0,1,.39-.1h.61V49.66h-1a.57.57,0,0,1-.38-.1.37.37,0,0,1,0-.54.57.57,0,0,1,.38-.1h1.93l5.44,9.2V49.66H251a.56.56,0,0,1-.38-.1.34.34,0,0,1-.11-.27.35.35,0,0,1,.11-.27.56.56,0,0,1,.38-.1h2.72a.57.57,0,0,1,.38.1.37.37,0,0,1,0,.54.57.57,0,0,1-.38.1h-.62Z"/><path d="M262.36,59.19V58.13a5.24,5.24,0,0,1-3.43,1.35,3,3,0,0,1-2.07-.67,2.13,2.13,0,0,1-.75-1.65,2.36,2.36,0,0,1,1-1.87,4.46,4.46,0,0,1,2.87-.8,10.14,10.14,0,0,1,1.11.07q.6.07,1.29.21V53.58a1.32,1.32,0,0,0-.56-1.05,2.67,2.67,0,0,0-1.69-.45,8.52,8.52,0,0,0-2.41.5,1.64,1.64,0,0,1-.36.09.32.32,0,0,1-.24-.1.37.37,0,0,1-.1-.26.32.32,0,0,1,.09-.24,3.05,3.05,0,0,1,1-.36,8.73,8.73,0,0,1,2.07-.37,3.18,3.18,0,0,1,2.18.69,2,2,0,0,1,.78,1.56v4.88h1a.58.58,0,0,1,.39.1.37.37,0,0,1,0,.53.56.56,0,0,1-.39.11Zm0-3.67a7,7,0,0,0-1.1-.22,10.11,10.11,0,0,0-1.22-.07,4,4,0,0,0-2.51.69,1.52,1.52,0,0,0-.68,1.24,1.43,1.43,0,0,0,.52,1.12,2.25,2.25,0,0,0,1.52.46,4.17,4.17,0,0,0,1.78-.38,6.42,6.42,0,0,0,1.69-1.22Z"/><path d="M267.67,51.59v.75a2.64,2.64,0,0,1,1.89-1,1.69,1.69,0,0,1,1,.3,2.27,2.27,0,0,1,.72.92,3.82,3.82,0,0,1,1-.92,2,2,0,0,1,1-.3,1.64,1.64,0,0,1,1.27.52,2.09,2.09,0,0,1,.62,1.46v5.15h.62a.57.57,0,0,1,.38.1.37.37,0,0,1,0,.53.55.55,0,0,1-.38.11h-1.36V53.37a1.31,1.31,0,0,0-.34-.93,1,1,0,0,0-.79-.37,1.54,1.54,0,0,0-.85.3,4.21,4.21,0,0,0-1,1.19v4.89h.61a.57.57,0,0,1,.38.1.37.37,0,0,1,0,.53.55.55,0,0,1-.38.11h-1.36V53.43a1.39,1.39,0,0,0-.35-1,1,1,0,0,0-.78-.38,1.4,1.4,0,0,0-.78.25,4.48,4.48,0,0,0-1.12,1.24v4.89h.62a.57.57,0,0,1,.38.1.37.37,0,0,1,0,.53.55.55,0,0,1-.38.11h-2a.55.55,0,0,1-.38-.11.37.37,0,0,1,0-.53.56.56,0,0,1,.38-.1h.62V52.34h-.62a.55.55,0,0,1-.38-.11.35.35,0,0,1-.11-.27.34.34,0,0,1,.11-.26.55.55,0,0,1,.38-.11Z"/><path d="M285.79,55.57h-7.51a3.57,3.57,0,0,0,1.2,2.3,3.65,3.65,0,0,0,2.49.87,6,6,0,0,0,1.73-.27,4.45,4.45,0,0,0,1.47-.72.5.5,0,0,1,.29-.13.33.33,0,0,1,.25.11.36.36,0,0,1,.11.26.41.41,0,0,1-.14.29,3.93,3.93,0,0,1-1.5.82,6.54,6.54,0,0,1-2.21.38,4.34,4.34,0,0,1-3.16-1.24,4.05,4.05,0,0,1-1.27-3,3.7,3.7,0,0,1,1.19-2.75,4.07,4.07,0,0,1,2.94-1.15,4,4,0,0,1,3,1.18A4.11,4.11,0,0,1,285.79,55.57Zm-.75-.75a3.21,3.21,0,0,0-1.15-2,3.63,3.63,0,0,0-4.44,0,3.23,3.23,0,0,0-1.16,2Z"/><path d="M296.35,53.58v1.05h-7.52V53.58Z"/><path d="M307.13,53.58v1.05h-7.52V53.58Z"/><path d="M310.8,51.59v.75a2.64,2.64,0,0,1,1.89-1,1.69,1.69,0,0,1,1,.3,2.27,2.27,0,0,1,.72.92,3.82,3.82,0,0,1,1-.92,2,2,0,0,1,1-.3,1.64,1.64,0,0,1,1.27.52,2.09,2.09,0,0,1,.62,1.46v5.15h.62a.57.57,0,0,1,.38.1.37.37,0,0,1,0,.53.55.55,0,0,1-.38.11h-1.36V53.37a1.31,1.31,0,0,0-.34-.93,1,1,0,0,0-.79-.37,1.54,1.54,0,0,0-.85.3,4.21,4.21,0,0,0-1,1.19v4.89h.61a.57.57,0,0,1,.38.1.37.37,0,0,1,0,.53.55.55,0,0,1-.38.11h-1.36V53.43a1.39,1.39,0,0,0-.35-1,1,1,0,0,0-.78-.38,1.4,1.4,0,0,0-.78.25,4.48,4.48,0,0,0-1.12,1.24v4.89h.62a.57.57,0,0,1,.38.1.37.37,0,0,1,0,.53.55.55,0,0,1-.38.11h-2a.55.55,0,0,1-.38-.11.37.37,0,0,1,0-.53.56.56,0,0,1,.38-.1h.62V52.34h-.62a.55.55,0,0,1-.38-.11A.35.35,0,0,1,309,52a.34.34,0,0,1,.11-.26.55.55,0,0,1,.38-.11Z"/><path d="M329.06,55.41a3.9,3.9,0,0,1-1.21,2.88,4.15,4.15,0,0,1-5.83,0,4,4,0,0,1,0-5.76,4.15,4.15,0,0,1,5.83,0A3.91,3.91,0,0,1,329.06,55.41Zm-.75,0a3.19,3.19,0,0,0-1-2.36,3.42,3.42,0,0,0-4.78,0,3.3,3.3,0,0,0,0,4.71,3.41,3.41,0,0,0,4.78,0A3.2,3.2,0,0,0,328.32,55.41Z"/><path d="M339.34,48.18V58.46h1a.58.58,0,0,1,.39.1.37.37,0,0,1,0,.53.56.56,0,0,1-.39.11h-1.73V57.73a3.88,3.88,0,0,1-3.25,1.75,3.84,3.84,0,0,1-3.37-2,4.14,4.14,0,0,1,0-4.06,3.81,3.81,0,0,1,1.45-1.51,3.76,3.76,0,0,1,1.93-.54,3.93,3.93,0,0,1,3.25,1.75V48.93h-1a.56.56,0,0,1-.39-.11.35.35,0,0,1-.11-.27.34.34,0,0,1,.11-.26.56.56,0,0,1,.39-.11Zm-.75,7.23a3.25,3.25,0,0,0-.95-2.37,3.13,3.13,0,0,0-4.52,0,3.43,3.43,0,0,0,0,4.73,3.12,3.12,0,0,0,4.52,0A3.26,3.26,0,0,0,338.59,55.41Z"/><path d="M346.9,51.59v6.86h2.9a.58.58,0,0,1,.39.1.37.37,0,0,1,0,.53.56.56,0,0,1-.39.11h-6.53a.55.55,0,0,1-.38-.11.37.37,0,0,1,0-.53.57.57,0,0,1,.38-.1h2.9V52.34H344a.57.57,0,0,1-.38-.11.34.34,0,0,1-.12-.26.35.35,0,0,1,.11-.27.56.56,0,0,1,.39-.11Zm0-3.78v1.9h-1.09v-1.9Z"/><path d="M356.81,52.34v6.12H360a.57.57,0,0,1,.38.1.37.37,0,0,1,0,.53.55.55,0,0,1-.38.11h-5.77a.55.55,0,0,1-.38-.11.37.37,0,0,1,0-.53.56.56,0,0,1,.38-.1h1.78V52.34h-1.6a.55.55,0,0,1-.38-.11A.35.35,0,0,1,354,52a.34.34,0,0,1,.11-.26.55.55,0,0,1,.38-.11h1.6V50.48a2.11,2.11,0,0,1,.75-1.61,2.86,2.86,0,0,1,2-.68,14,14,0,0,1,2.23.19,1.14,1.14,0,0,1,.54.17.35.35,0,0,1,.09.25.34.34,0,0,1-.11.26.39.39,0,0,1-.28.1l-.24,0a15.37,15.37,0,0,0-2.24-.2,2.13,2.13,0,0,0-1.49.47,1.42,1.42,0,0,0-.52,1.08v1.11h3.45a.55.55,0,0,1,.38.11.36.36,0,0,1,.11.27.35.35,0,0,1-.11.26.55.55,0,0,1-.38.11Z"/><path d="M368.47,51.59v6.86h2.9a.58.58,0,0,1,.39.1.37.37,0,0,1,0,.53.56.56,0,0,1-.39.11h-6.53a.55.55,0,0,1-.38-.11.37.37,0,0,1,0-.53.57.57,0,0,1,.38-.1h2.9V52.34h-2.15a.57.57,0,0,1-.38-.11.34.34,0,0,1-.12-.26.35.35,0,0,1,.11-.27.56.56,0,0,1,.39-.11Zm0-3.78v1.9h-1.09v-1.9Z"/><path d="M382.85,55.57h-7.51a3.57,3.57,0,0,0,1.2,2.3,3.65,3.65,0,0,0,2.49.87,6,6,0,0,0,1.73-.27,4.45,4.45,0,0,0,1.47-.72.5.5,0,0,1,.29-.13.33.33,0,0,1,.25.11.36.36,0,0,1,.11.26.41.41,0,0,1-.14.29,3.93,3.93,0,0,1-1.5.82,6.54,6.54,0,0,1-2.21.38,4.34,4.34,0,0,1-3.16-1.24,4.05,4.05,0,0,1-1.27-3,3.7,3.7,0,0,1,1.19-2.75,4.07,4.07,0,0,1,2.94-1.15,4,4,0,0,1,3,1.18A4.11,4.11,0,0,1,382.85,55.57Zm-.75-.75a3.21,3.21,0,0,0-1.15-2,3.63,3.63,0,0,0-4.44,0,3.23,3.23,0,0,0-1.16,2Z"/><path d="M388.77,51.59v1.86a12.41,12.41,0,0,1,2.15-1.67,2.89,2.89,0,0,1,1.32-.37,2,2,0,0,1,1.22.44q.57.44.57.67a.37.37,0,0,1-.39.39.33.33,0,0,1-.15,0,1.25,1.25,0,0,1-.23-.2,2.25,2.25,0,0,0-.54-.42,1,1,0,0,0-.45-.11,2.46,2.46,0,0,0-1.16.39,17.27,17.27,0,0,0-2.36,1.89v4H392a.58.58,0,0,1,.39.1.37.37,0,0,1,0,.53.57.57,0,0,1-.39.11h-5.78a.57.57,0,0,1-.38-.1.35.35,0,0,1,0-.51.56.56,0,0,1,.38-.1H388V52.34h-1.36a.55.55,0,0,1-.38-.11.38.38,0,0,1,0-.54.55.55,0,0,1,.38-.11Z"/><path d="M404,59.19h-.95L397.66,50v8.45H399a.58.58,0,0,1,.39.1.37.37,0,0,1,0,.53.57.57,0,0,1-.39.11h-2.71a.56.56,0,0,1-.39-.11.37.37,0,0,1,0-.53.58.58,0,0,1,.39-.1h.61V49.66h-1a.57.57,0,0,1-.38-.1.37.37,0,0,1,0-.54.57.57,0,0,1,.38-.1h1.93l5.44,9.2V49.66h-1.36a.57.57,0,0,1-.38-.1.34.34,0,0,1-.11-.27.35.35,0,0,1,.11-.27.56.56,0,0,1,.38-.1h2.72a.57.57,0,0,1,.38.1.37.37,0,0,1,0,.54.57.57,0,0,1-.38.1H404Z"/><path d="M413.34,59.19V58.13a5.24,5.24,0,0,1-3.43,1.35,3,3,0,0,1-2.07-.67,2.13,2.13,0,0,1-.75-1.65,2.36,2.36,0,0,1,1-1.87,4.46,4.46,0,0,1,2.87-.8,10.14,10.14,0,0,1,1.11.07q.6.07,1.29.21V53.58a1.32,1.32,0,0,0-.56-1.05,2.67,2.67,0,0,0-1.69-.45,8.52,8.52,0,0,0-2.41.5,1.64,1.64,0,0,1-.36.09.32.32,0,0,1-.24-.1.37.37,0,0,1-.1-.26.32.32,0,0,1,.09-.24,3.05,3.05,0,0,1,1-.36,8.73,8.73,0,0,1,2.07-.37,3.18,3.18,0,0,1,2.18.69,2,2,0,0,1,.78,1.56v4.88h1a.58.58,0,0,1,.39.1.37.37,0,0,1,0,.53.56.56,0,0,1-.39.11Zm0-3.67a7,7,0,0,0-1.1-.22,10.11,10.11,0,0,0-1.22-.07,4,4,0,0,0-2.51.69,1.52,1.52,0,0,0-.68,1.24,1.43,1.43,0,0,0,.52,1.12,2.25,2.25,0,0,0,1.52.46,4.17,4.17,0,0,0,1.78-.38,6.42,6.42,0,0,0,1.69-1.22Z"/><path d="M418.64,51.59v.75a2.64,2.64,0,0,1,1.89-1,1.69,1.69,0,0,1,1,.3,2.27,2.27,0,0,1,.72.92,3.82,3.82,0,0,1,1-.92,2,2,0,0,1,1-.3,1.64,1.64,0,0,1,1.27.52,2.09,2.09,0,0,1,.62,1.46v5.15h.62a.57.57,0,0,1,.38.1.37.37,0,0,1,0,.53.55.55,0,0,1-.38.11h-1.36V53.37a1.31,1.31,0,0,0-.34-.93,1,1,0,0,0-.79-.37,1.54,1.54,0,0,0-.85.3,4.21,4.21,0,0,0-1,1.19v4.89H423a.57.57,0,0,1,.38.1.37.37,0,0,1,0,.53.55.55,0,0,1-.38.11h-1.36V53.43a1.39,1.39,0,0,0-.35-1,1,1,0,0,0-.78-.38,1.4,1.4,0,0,0-.78.25,4.48,4.48,0,0,0-1.12,1.24v4.89h.62a.57.57,0,0,1,.38.1.37.37,0,0,1,0,.53.55.55,0,0,1-.38.11h-2a.55.55,0,0,1-.38-.11.37.37,0,0,1,0-.53.56.56,0,0,1,.38-.1h.62V52.34h-.62a.55.55,0,0,1-.38-.11.35.35,0,0,1-.11-.27.34.34,0,0,1,.11-.26.55.55,0,0,1,.38-.11Z"/><path d="M436.77,55.57h-7.51a3.57,3.57,0,0,0,1.2,2.3,3.65,3.65,0,0,0,2.49.87,6,6,0,0,0,1.73-.27,4.45,4.45,0,0,0,1.47-.72.5.5,0,0,1,.29-.13.33.33,0,0,1,.25.11.36.36,0,0,1,.11.26.41.41,0,0,1-.14.29,3.93,3.93,0,0,1-1.5.82,6.54,6.54,0,0,1-2.21.38,4.34,4.34,0,0,1-3.16-1.24,4.05,4.05,0,0,1-1.27-3,3.7,3.7,0,0,1,1.19-2.75,4.07,4.07,0,0,1,2.94-1.15,4,4,0,0,1,3,1.18A4.11,4.11,0,0,1,436.77,55.57Zm-.75-.75a3.21,3.21,0,0,0-1.15-2,3.63,3.63,0,0,0-4.44,0,3.23,3.23,0,0,0-1.16,2Z"/><path d="M22.82,102.58h.32a1.16,1.16,0,0,1,.84.35,1.19,1.19,0,0,1,0,1.69,1.17,1.17,0,0,1-.84.34h-.32a1.15,1.15,0,0,1-.84-.35,1.19,1.19,0,0,1,0-1.69A1.17,1.17,0,0,1,22.82,102.58Z"/><path d="M35.88,104.69v-1.06A5.24,5.24,0,0,1,32.45,105a3,3,0,0,1-2.07-.67,2.13,2.13,0,0,1-.75-1.65,2.36,2.36,0,0,1,1-1.87,4.46,4.46,0,0,1,2.87-.8,10.13,10.13,0,0,1,1.11.07q.6.07,1.29.21V99.08A1.32,1.32,0,0,0,35.32,98a2.67,2.67,0,0,0-1.68-.45,8.51,8.51,0,0,0-2.41.5,1.65,1.65,0,0,1-.36.09.32.32,0,0,1-.24-.1.37.37,0,0,1-.1-.26.32.32,0,0,1,.09-.24,3,3,0,0,1,1-.36,8.74,8.74,0,0,1,2.07-.37,3.18,3.18,0,0,1,2.18.69,2,2,0,0,1,.78,1.56V104h1a.58.58,0,0,1,.39.1.37.37,0,0,1,0,.53.56.56,0,0,1-.39.11Zm0-3.67a7,7,0,0,0-1.1-.22,10.13,10.13,0,0,0-1.22-.07,4,4,0,0,0-2.51.69,1.52,1.52,0,0,0-.68,1.24,1.43,1.43,0,0,0,.52,1.12,2.25,2.25,0,0,0,1.52.46,4.17,4.17,0,0,0,1.78-.38,6.42,6.42,0,0,0,1.69-1.22Z"/><path d="M48.31,99.08v1.05H40.79V99.08Z"/><path d="M52.55,93.68v4.89a4,4,0,0,1,3.22-1.74A3.73,3.73,0,0,1,58.54,98a4,4,0,0,1,1.15,2.87,4,4,0,0,1-1.16,2.91A3.71,3.71,0,0,1,55.77,105a3.88,3.88,0,0,1-3.22-1.74v1.45H50.82a.55.55,0,0,1-.38-.11.37.37,0,0,1,0-.53.57.57,0,0,1,.38-.1h1V94.43h-1a.55.55,0,0,1-.38-.11.35.35,0,0,1-.11-.27.34.34,0,0,1,.11-.26.55.55,0,0,1,.38-.11Zm6.4,7.23a3.24,3.24,0,0,0-1-2.37,3.07,3.07,0,0,0-4.48,0,3.4,3.4,0,0,0,0,4.73,3.07,3.07,0,0,0,4.48,0A3.24,3.24,0,0,0,58.95,100.91Z"/><path d="M66.49,93.68V104h2.9a.58.58,0,0,1,.39.1.37.37,0,0,1,0,.53.56.56,0,0,1-.39.11H62.85a.55.55,0,0,1-.38-.11.37.37,0,0,1,0-.53.57.57,0,0,1,.38-.1h2.9V94.43H63.63a.56.56,0,0,1-.38-.11.35.35,0,0,1-.12-.27.34.34,0,0,1,.11-.26.56.56,0,0,1,.39-.11Z"/><path d="M81,100.91a3.9,3.9,0,0,1-1.21,2.88,4.15,4.15,0,0,1-5.83,0A4,4,0,0,1,74,98a4.15,4.15,0,0,1,5.83,0A3.91,3.91,0,0,1,81,100.91Zm-.75,0a3.19,3.19,0,0,0-1-2.36,3.42,3.42,0,0,0-4.78,0,3.3,3.3,0,0,0,0,4.71,3.41,3.41,0,0,0,4.78,0A3.2,3.2,0,0,0,80.27,100.91Z"/><path d="M90.76,97.84v-.25a.56.56,0,0,1,.11-.39.34.34,0,0,1,.26-.11.35.35,0,0,1,.27.11.56.56,0,0,1,.11.39v1.67a.61.61,0,0,1-.11.39.36.36,0,0,1-.52,0,.52.52,0,0,1-.12-.34,1.72,1.72,0,0,0-.82-1.19,3.43,3.43,0,0,0-2.07-.56,3.05,3.05,0,0,0-2.49,1,3.58,3.58,0,0,0-.85,2.35,3.18,3.18,0,0,0,.94,2.36,3.3,3.3,0,0,0,2.43.93,5.21,5.21,0,0,0,1.75-.32,4.4,4.4,0,0,0,1.61-1,.51.51,0,0,1,.32-.18.34.34,0,0,1,.35.35q0,.38-.89,1a5.68,5.68,0,0,1-3.19.94,4,4,0,0,1-2.93-1.14A3.89,3.89,0,0,1,83.79,101a4,4,0,0,1,4.12-4.13A4.15,4.15,0,0,1,90.76,97.84Z"/><path d="M97,101.41v3.28H95.24a.55.55,0,0,1-.38-.11.37.37,0,0,1,0-.53.57.57,0,0,1,.38-.1h1V94.43h-1a.55.55,0,0,1-.38-.11.35.35,0,0,1-.11-.27.34.34,0,0,1,.11-.26.55.55,0,0,1,.38-.11H97v6.79l3.13-2.63h-.38a.55.55,0,0,1-.38-.11.34.34,0,0,1-.11-.26.36.36,0,0,1,.11-.27.55.55,0,0,1,.38-.11h2.36a.56.56,0,0,1,.39.11.35.35,0,0,1,.11.27.34.34,0,0,1-.11.26.56.56,0,0,1-.39.11h-.85l-2.88,2.4L102,104h.85a.58.58,0,0,1,.39.1.37.37,0,0,1,0,.53.56.56,0,0,1-.39.11h-2.39a.55.55,0,0,1-.38-.11.37.37,0,0,1,0-.53.57.57,0,0,1,.38-.1H101l-3.17-3.26Z"/><path d="M112.86,104.69h-.95l-5.43-9.19V104h1.36a.58.58,0,0,1,.39.1.37.37,0,0,1,0,.53.56.56,0,0,1-.39.11h-2.71a.56.56,0,0,1-.39-.11.37.37,0,0,1,0-.53.58.58,0,0,1,.39-.1h.61V95.16h-1a.57.57,0,0,1-.38-.1.37.37,0,0,1,0-.54.57.57,0,0,1,.38-.1h1.93l5.44,9.2V95.16h-1.36a.56.56,0,0,1-.38-.1.34.34,0,0,1-.11-.27.35.35,0,0,1,.11-.27.56.56,0,0,1,.38-.1h2.72a.57.57,0,0,1,.38.1.37.37,0,0,1,0,.54.57.57,0,0,1-.38.1h-.62Z"/><path d="M122.16,104.69v-1.06a5.24,5.24,0,0,1-3.43,1.35,3,3,0,0,1-2.07-.67,2.13,2.13,0,0,1-.75-1.65,2.36,2.36,0,0,1,1-1.87,4.46,4.46,0,0,1,2.87-.8,10.13,10.13,0,0,1,1.11.07q.6.07,1.29.21V99.08A1.32,1.32,0,0,0,121.6,98a2.67,2.67,0,0,0-1.68-.45,8.51,8.51,0,0,0-2.41.5,1.65,1.65,0,0,1-.36.09.32.32,0,0,1-.24-.1.37.37,0,0,1-.1-.26.32.32,0,0,1,.09-.24,3,3,0,0,1,1-.36,8.74,8.74,0,0,1,2.07-.37,3.18,3.18,0,0,1,2.18.69,2,2,0,0,1,.78,1.56V104h1a.58.58,0,0,1,.39.1.37.37,0,0,1,0,.53.56.56,0,0,1-.39.11Zm0-3.67a7,7,0,0,0-1.1-.22,10.13,10.13,0,0,0-1.22-.07,4,4,0,0,0-2.51.69,1.52,1.52,0,0,0-.68,1.24,1.43,1.43,0,0,0,.52,1.12,2.25,2.25,0,0,0,1.52.46,4.17,4.17,0,0,0,1.78-.38,6.42,6.42,0,0,0,1.69-1.22Z"/><path d="M127.47,97.09v.75a2.64,2.64,0,0,1,1.89-1,1.69,1.69,0,0,1,1,.3,2.27,2.27,0,0,1,.72.92,3.83,3.83,0,0,1,1-.92,2,2,0,0,1,1-.3,1.64,1.64,0,0,1,1.27.52A2.09,2.09,0,0,1,135,98.8V104h.62a.56.56,0,0,1,.38.1.37.37,0,0,1,0,.53.55.55,0,0,1-.38.11h-1.36V98.87a1.31,1.31,0,0,0-.34-.93,1,1,0,0,0-.79-.37,1.54,1.54,0,0,0-.85.3,4.21,4.21,0,0,0-1,1.19V104h.61a.57.57,0,0,1,.38.1.37.37,0,0,1,0,.53.55.55,0,0,1-.38.11h-1.36V98.93a1.39,1.39,0,0,0-.35-1,1,1,0,0,0-.78-.38,1.4,1.4,0,0,0-.78.25,4.49,4.49,0,0,0-1.12,1.24V104h.62a.57.57,0,0,1,.38.1.37.37,0,0,1,0,.53.55.55,0,0,1-.38.11h-2a.55.55,0,0,1-.38-.11.37.37,0,0,1,0-.53.57.57,0,0,1,.38-.1h.62V97.84h-.62a.55.55,0,0,1-.38-.11.35.35,0,0,1-.11-.27.34.34,0,0,1,.11-.26.55.55,0,0,1,.38-.11Z"/><path d="M145.6,101.07h-7.51a3.57,3.57,0,0,0,1.2,2.3,3.65,3.65,0,0,0,2.49.87,6,6,0,0,0,1.73-.27,4.44,4.44,0,0,0,1.47-.72.5.5,0,0,1,.29-.13.33.33,0,0,1,.25.11.36.36,0,0,1,.1.26.41.41,0,0,1-.14.29,3.93,3.93,0,0,1-1.5.82,6.54,6.54,0,0,1-2.21.38,4.34,4.34,0,0,1-3.16-1.24,4.05,4.05,0,0,1-1.27-3A3.7,3.7,0,0,1,138.53,98a4.07,4.07,0,0,1,2.94-1.15,4,4,0,0,1,3,1.18A4.11,4.11,0,0,1,145.6,101.07Zm-.75-.75a3.21,3.21,0,0,0-1.15-2,3.63,3.63,0,0,0-4.44,0,3.23,3.23,0,0,0-1.16,2Z"/><path d="M157.29,109.62h-9.8a.56.56,0,0,1-.38-.1.37.37,0,0,1,0-.54.56.56,0,0,1,.38-.1h9.8a.56.56,0,0,1,.38.1.38.38,0,0,1,0,.54A.56.56,0,0,1,157.29,109.62Z"/><path d="M168.08,109.62h-9.8a.56.56,0,0,1-.38-.1.37.37,0,0,1,0-.54.56.56,0,0,1,.38-.1h9.8a.56.56,0,0,1,.38.1.38.38,0,0,1,0,.54A.56.56,0,0,1,168.08,109.62Z"/><path d="M177.95,101.07h-7.51a3.57,3.57,0,0,0,1.2,2.3,3.65,3.65,0,0,0,2.49.87,6,6,0,0,0,1.73-.27,4.44,4.44,0,0,0,1.47-.72.5.5,0,0,1,.29-.13.33.33,0,0,1,.25.11.36.36,0,0,1,.1.26.41.41,0,0,1-.14.29,3.93,3.93,0,0,1-1.5.82,6.54,6.54,0,0,1-2.21.38,4.34,4.34,0,0,1-3.16-1.24,4.05,4.05,0,0,1-1.27-3A3.7,3.7,0,0,1,170.88,98a4.07,4.07,0,0,1,2.94-1.15,4,4,0,0,1,3,1.18A4.11,4.11,0,0,1,177.95,101.07Zm-.75-.75a3.21,3.21,0,0,0-1.15-2,3.63,3.63,0,0,0-4.44,0,3.23,3.23,0,0,0-1.16,2Z"/><path d="M185.12,93.68V104H188a.58.58,0,0,1,.39.1.37.37,0,0,1,0,.53.56.56,0,0,1-.39.11h-6.53a.55.55,0,0,1-.38-.11.37.37,0,0,1,0-.53.57.57,0,0,1,.38-.1h2.9V94.43h-2.12a.56.56,0,0,1-.38-.11.35.35,0,0,1-.12-.27.34.34,0,0,1,.11-.26.56.56,0,0,1,.39-.11Z"/><path d="M199.52,101.07H192a3.57,3.57,0,0,0,1.2,2.3,3.65,3.65,0,0,0,2.49.87,6,6,0,0,0,1.73-.27,4.44,4.44,0,0,0,1.47-.72.5.5,0,0,1,.29-.13.33.33,0,0,1,.25.11.36.36,0,0,1,.1.26.41.41,0,0,1-.14.29,3.93,3.93,0,0,1-1.5.82,6.54,6.54,0,0,1-2.21.38,4.34,4.34,0,0,1-3.16-1.24,4.05,4.05,0,0,1-1.27-3A3.7,3.7,0,0,1,192.45,98a4.07,4.07,0,0,1,2.94-1.15,4,4,0,0,1,3,1.18A4.11,4.11,0,0,1,199.52,101.07Zm-.75-.75a3.21,3.21,0,0,0-1.15-2,3.63,3.63,0,0,0-4.44,0,3.23,3.23,0,0,0-1.16,2Z"/><path d="M203,97.09v.75a2.64,2.64,0,0,1,1.89-1,1.69,1.69,0,0,1,1,.3,2.27,2.27,0,0,1,.72.92,3.83,3.83,0,0,1,1-.92,2,2,0,0,1,1-.3,1.64,1.64,0,0,1,1.27.52,2.09,2.09,0,0,1,.62,1.46V104h.62a.56.56,0,0,1,.38.1.37.37,0,0,1,0,.53.55.55,0,0,1-.38.11h-1.36V98.87a1.31,1.31,0,0,0-.34-.93,1,1,0,0,0-.79-.37,1.54,1.54,0,0,0-.85.3,4.21,4.21,0,0,0-1,1.19V104h.61a.57.57,0,0,1,.38.1.37.37,0,0,1,0,.53.55.55,0,0,1-.38.11H206V98.93a1.39,1.39,0,0,0-.35-1,1,1,0,0,0-.78-.38,1.4,1.4,0,0,0-.78.25A4.49,4.49,0,0,0,203,99.07V104h.62a.57.57,0,0,1,.38.1.37.37,0,0,1,0,.53.55.55,0,0,1-.38.11h-2a.55.55,0,0,1-.38-.11.37.37,0,0,1,0-.53.57.57,0,0,1,.38-.1h.62V97.84h-.62a.55.55,0,0,1-.38-.11.35.35,0,0,1-.11-.27.34.34,0,0,1,.11-.26.55.55,0,0,1,.38-.11Z"/><path d="M221.09,101.07h-7.51a3.57,3.57,0,0,0,1.2,2.3,3.65,3.65,0,0,0,2.49.87A6,6,0,0,0,219,104a4.44,4.44,0,0,0,1.47-.72.5.5,0,0,1,.29-.13.33.33,0,0,1,.25.11.36.36,0,0,1,.1.26.41.41,0,0,1-.14.29,3.93,3.93,0,0,1-1.5.82,6.54,6.54,0,0,1-2.21.38,4.34,4.34,0,0,1-3.16-1.24,4.05,4.05,0,0,1-1.27-3A3.7,3.7,0,0,1,214,98,4.07,4.07,0,0,1,217,96.83a4,4,0,0,1,3,1.18A4.11,4.11,0,0,1,221.09,101.07Zm-.75-.75a3.21,3.21,0,0,0-1.15-2,3.63,3.63,0,0,0-4.44,0,3.23,3.23,0,0,0-1.16,2Z"/><path d="M225.5,97.09v1.11a5.32,5.32,0,0,1,1.4-1.08,3.22,3.22,0,0,1,1.4-.3,3.28,3.28,0,0,1,1.54.36,2.52,2.52,0,0,1,.89.87,2.26,2.26,0,0,1,.4,1.25V104h.62a.56.56,0,0,1,.38.1.37.37,0,0,1,0,.53.55.55,0,0,1-.38.11h-2a.56.56,0,0,1-.39-.11.37.37,0,0,1,0-.53.58.58,0,0,1,.39-.1h.61V99.44a1.75,1.75,0,0,0-.57-1.32,2.13,2.13,0,0,0-1.53-.54,2.59,2.59,0,0,0-1.26.29,6.79,6.79,0,0,0-1.53,1.46V104h.83a.57.57,0,0,1,.38.1.37.37,0,0,1,0,.53.55.55,0,0,1-.38.11h-2.4a.55.55,0,0,1-.38-.11.37.37,0,0,1,0-.53.56.56,0,0,1,.38-.1h.83V97.84h-.62a.55.55,0,0,1-.38-.11.35.35,0,0,1-.11-.27.34.34,0,0,1,.11-.26.55.55,0,0,1,.38-.11Z"/><path d="M237.16,97.09h4a.55.55,0,0,1,.38.11.35.35,0,0,1,.11.27.34.34,0,0,1-.11.26.55.55,0,0,1-.38.11h-4v4.91a1.34,1.34,0,0,0,.51,1.07,2.29,2.29,0,0,0,1.5.43,6.49,6.49,0,0,0,1.61-.22,5.47,5.47,0,0,0,1.35-.5.57.57,0,0,1,.29-.11.33.33,0,0,1,.25.11.36.36,0,0,1,.11.26.34.34,0,0,1-.11.25,3.65,3.65,0,0,1-1.36.63,7,7,0,0,1-2.08.34,3.21,3.21,0,0,1-2.05-.61,2,2,0,0,1-.76-1.63V97.84H235a.55.55,0,0,1-.38-.11.35.35,0,0,1-.11-.27.35.35,0,0,1,.11-.26.55.55,0,0,1,.38-.11h1.36V94.92a.55.55,0,0,1,.1-.38.35.35,0,0,1,.26-.11.36.36,0,0,1,.27.11.55.55,0,0,1,.1.38Z"/><path d="M253.06,104.69h-.95l-5.43-9.19V104H248a.58.58,0,0,1,.39.1.37.37,0,0,1,0,.53.56.56,0,0,1-.39.11h-2.71a.56.56,0,0,1-.39-.11.37.37,0,0,1,0-.53.58.58,0,0,1,.39-.1h.61V95.16h-1a.57.57,0,0,1-.38-.1.37.37,0,0,1,0-.54.57.57,0,0,1,.38-.1h1.93l5.44,9.2V95.16H251a.56.56,0,0,1-.38-.1.34.34,0,0,1-.11-.27.35.35,0,0,1,.11-.27.56.56,0,0,1,.38-.1h2.72a.57.57,0,0,1,.38.1.37.37,0,0,1,0,.54.57.57,0,0,1-.38.1h-.62Z"/><path d="M262.36,104.69v-1.06a5.24,5.24,0,0,1-3.43,1.35,3,3,0,0,1-2.07-.67,2.13,2.13,0,0,1-.75-1.65,2.36,2.36,0,0,1,1-1.87A4.46,4.46,0,0,1,260,100a10.14,10.14,0,0,1,1.11.07q.6.07,1.29.21V99.08A1.32,1.32,0,0,0,261.8,98a2.67,2.67,0,0,0-1.69-.45,8.52,8.52,0,0,0-2.41.5,1.64,1.64,0,0,1-.36.09.32.32,0,0,1-.24-.1.37.37,0,0,1-.1-.26.32.32,0,0,1,.09-.24,3.05,3.05,0,0,1,1-.36,8.73,8.73,0,0,1,2.07-.37,3.18,3.18,0,0,1,2.18.69,2,2,0,0,1,.78,1.56V104h1a.58.58,0,0,1,.39.1.37.37,0,0,1,0,.53.56.56,0,0,1-.39.11Zm0-3.67a7,7,0,0,0-1.1-.22,10.11,10.11,0,0,0-1.22-.07,4,4,0,0,0-2.51.69,1.52,1.52,0,0,0-.68,1.24,1.43,1.43,0,0,0,.52,1.12,2.25,2.25,0,0,0,1.52.46,4.17,4.17,0,0,0,1.78-.38,6.42,6.42,0,0,0,1.69-1.22Z"/><path d="M267.67,97.09v.75a2.64,2.64,0,0,1,1.89-1,1.69,1.69,0,0,1,1,.3,2.27,2.27,0,0,1,.72.92,3.82,3.82,0,0,1,1-.92,2,2,0,0,1,1-.3,1.64,1.64,0,0,1,1.27.52,2.09,2.09,0,0,1,.62,1.46V104h.62a.57.57,0,0,1,.38.1.37.37,0,0,1,0,.53.55.55,0,0,1-.38.11h-1.36V98.87a1.31,1.31,0,0,0-.34-.93,1,1,0,0,0-.79-.37,1.54,1.54,0,0,0-.85.3,4.21,4.21,0,0,0-1,1.19V104h.61a.57.57,0,0,1,.38.1.37.37,0,0,1,0,.53.55.55,0,0,1-.38.11h-1.36V98.93a1.39,1.39,0,0,0-.35-1,1,1,0,0,0-.78-.38,1.4,1.4,0,0,0-.78.25,4.48,4.48,0,0,0-1.12,1.24V104h.62a.57.57,0,0,1,.38.1.37.37,0,0,1,0,.53.55.55,0,0,1-.38.11h-2a.55.55,0,0,1-.38-.11.37.37,0,0,1,0-.53.56.56,0,0,1,.38-.1h.62V97.84h-.62a.55.55,0,0,1-.38-.11.35.35,0,0,1-.11-.27.34.34,0,0,1,.11-.26.55.55,0,0,1,.38-.11Z"/><path d="M285.79,101.07h-7.51a3.57,3.57,0,0,0,1.2,2.3,3.65,3.65,0,0,0,2.49.87,6,6,0,0,0,1.73-.27,4.45,4.45,0,0,0,1.47-.72.5.5,0,0,1,.29-.13.33.33,0,0,1,.25.11.36.36,0,0,1,.11.26.41.41,0,0,1-.14.29,3.93,3.93,0,0,1-1.5.82A6.54,6.54,0,0,1,282,105a4.34,4.34,0,0,1-3.16-1.24,4.05,4.05,0,0,1-1.27-3A3.7,3.7,0,0,1,278.73,98a4.07,4.07,0,0,1,2.94-1.15,4,4,0,0,1,3,1.18A4.11,4.11,0,0,1,285.79,101.07Zm-.75-.75a3.21,3.21,0,0,0-1.15-2,3.63,3.63,0,0,0-4.44,0,3.23,3.23,0,0,0-1.16,2Z"/><path d="M296.35,99.08v1.05h-7.52V99.08Z"/><path d="M307.13,99.08v1.05h-7.52V99.08Z"/><path d="M310.8,97.09v.75a2.64,2.64,0,0,1,1.89-1,1.69,1.69,0,0,1,1,.3,2.27,2.27,0,0,1,.72.92,3.82,3.82,0,0,1,1-.92,2,2,0,0,1,1-.3,1.64,1.64,0,0,1,1.27.52,2.09,2.09,0,0,1,.62,1.46V104h.62a.57.57,0,0,1,.38.1.37.37,0,0,1,0,.53.55.55,0,0,1-.38.11h-1.36V98.87a1.31,1.31,0,0,0-.34-.93,1,1,0,0,0-.79-.37,1.54,1.54,0,0,0-.85.3,4.21,4.21,0,0,0-1,1.19V104h.61a.57.57,0,0,1,.38.1.37.37,0,0,1,0,.53.55.55,0,0,1-.38.11h-1.36V98.93a1.39,1.39,0,0,0-.35-1,1,1,0,0,0-.78-.38,1.4,1.4,0,0,0-.78.25,4.48,4.48,0,0,0-1.12,1.24V104h.62a.57.57,0,0,1,.38.1.37.37,0,0,1,0,.53.55.55,0,0,1-.38.11h-2a.55.55,0,0,1-.38-.11.37.37,0,0,1,0-.53.56.56,0,0,1,.38-.1h.62V97.84h-.62a.55.55,0,0,1-.38-.11.35.35,0,0,1-.11-.27.34.34,0,0,1,.11-.26.55.55,0,0,1,.38-.11Z"/><path d="M329.06,100.91a3.9,3.9,0,0,1-1.21,2.88,4.15,4.15,0,0,1-5.83,0A4,4,0,0,1,322,98a4.15,4.15,0,0,1,5.83,0A3.91,3.91,0,0,1,329.06,100.91Zm-.75,0a3.19,3.19,0,0,0-1-2.36,3.42,3.42,0,0,0-4.78,0,3.3,3.3,0,0,0,0,4.71,3.41,3.41,0,0,0,4.78,0A3.2,3.2,0,0,0,328.32,100.91Z"/><path d="M339.34,93.68V104h1a.58.58,0,0,1,.39.1.37.37,0,0,1,0,.53.56.56,0,0,1-.39.11h-1.73v-1.47a3.88,3.88,0,0,1-3.25,1.75,3.84,3.84,0,0,1-3.37-2,4.14,4.14,0,0,1,0-4.06,3.81,3.81,0,0,1,1.45-1.51,3.76,3.76,0,0,1,1.93-.54,3.93,3.93,0,0,1,3.25,1.75V94.43h-1a.56.56,0,0,1-.39-.11.35.35,0,0,1-.11-.27.34.34,0,0,1,.11-.26.56.56,0,0,1,.39-.11Zm-.75,7.23a3.25,3.25,0,0,0-.95-2.37,3.13,3.13,0,0,0-4.52,0,3.43,3.43,0,0,0,0,4.73,3.12,3.12,0,0,0,4.52,0A3.26,3.26,0,0,0,338.59,100.91Z"/><path d="M346.9,97.09V104h2.9a.58.58,0,0,1,.39.1.37.37,0,0,1,0,.53.56.56,0,0,1-.39.11h-6.53a.55.55,0,0,1-.38-.11.37.37,0,0,1,0-.53.57.57,0,0,1,.38-.1h2.9V97.84H344a.57.57,0,0,1-.38-.11.34.34,0,0,1-.12-.26.35.35,0,0,1,.11-.27.56.56,0,0,1,.39-.11Zm0-3.78v1.9h-1.09v-1.9Z"/><path d="M356.81,97.84V104H360a.57.57,0,0,1,.38.1.37.37,0,0,1,0,.53.55.55,0,0,1-.38.11h-5.77a.55.55,0,0,1-.38-.11.37.37,0,0,1,0-.53.56.56,0,0,1,.38-.1h1.78V97.84h-1.6a.55.55,0,0,1-.38-.11.35.35,0,0,1-.11-.27.34.34,0,0,1,.11-.26.55.55,0,0,1,.38-.11h1.6V96a2.11,2.11,0,0,1,.75-1.61,2.86,2.86,0,0,1,2-.68,14,14,0,0,1,2.23.19,1.14,1.14,0,0,1,.54.17.35.35,0,0,1,.09.25.34.34,0,0,1-.11.26.39.39,0,0,1-.28.1l-.24,0a15.37,15.37,0,0,0-2.24-.2,2.13,2.13,0,0,0-1.49.47,1.42,1.42,0,0,0-.52,1.08v1.11h3.45a.55.55,0,0,1,.38.11.36.36,0,0,1,.11.27.35.35,0,0,1-.11.26.55.55,0,0,1-.38.11Z"/><path d="M368.47,97.09V104h2.9a.58.58,0,0,1,.39.1.37.37,0,0,1,0,.53.56.56,0,0,1-.39.11h-6.53a.55.55,0,0,1-.38-.11.37.37,0,0,1,0-.53.57.57,0,0,1,.38-.1h2.9V97.84h-2.15a.57.57,0,0,1-.38-.11.34.34,0,0,1-.12-.26.35.35,0,0,1,.11-.27.56.56,0,0,1,.39-.11Zm0-3.78v1.9h-1.09v-1.9Z"/><path d="M382.85,101.07h-7.51a3.57,3.57,0,0,0,1.2,2.3,3.65,3.65,0,0,0,2.49.87,6,6,0,0,0,1.73-.27,4.45,4.45,0,0,0,1.47-.72.5.5,0,0,1,.29-.13.33.33,0,0,1,.25.11.36.36,0,0,1,.11.26.41.41,0,0,1-.14.29,3.93,3.93,0,0,1-1.5.82A6.54,6.54,0,0,1,379,105a4.34,4.34,0,0,1-3.16-1.24,4.05,4.05,0,0,1-1.27-3A3.7,3.7,0,0,1,375.78,98a4.07,4.07,0,0,1,2.94-1.15,4,4,0,0,1,3,1.18A4.11,4.11,0,0,1,382.85,101.07Zm-.75-.75a3.21,3.21,0,0,0-1.15-2,3.63,3.63,0,0,0-4.44,0,3.23,3.23,0,0,0-1.16,2Z"/><path d="M388.77,97.09V99a12.41,12.41,0,0,1,2.15-1.67,2.89,2.89,0,0,1,1.32-.37,2,2,0,0,1,1.22.44q.57.44.57.67a.37.37,0,0,1-.39.39.33.33,0,0,1-.15,0,1.25,1.25,0,0,1-.23-.2,2.25,2.25,0,0,0-.54-.42,1,1,0,0,0-.45-.11,2.46,2.46,0,0,0-1.16.39,17.27,17.27,0,0,0-2.36,1.89v4H392a.58.58,0,0,1,.39.1.37.37,0,0,1,0,.53.57.57,0,0,1-.39.11h-5.78a.57.57,0,0,1-.38-.1.35.35,0,0,1,0-.51.56.56,0,0,1,.38-.1H388V97.84h-1.36a.55.55,0,0,1-.38-.11.38.38,0,0,1,0-.54.55.55,0,0,1,.38-.11Z"/><path d="M404,104.69h-.95l-5.43-9.19V104H399a.58.58,0,0,1,.39.1.37.37,0,0,1,0,.53.57.57,0,0,1-.39.11h-2.71a.56.56,0,0,1-.39-.11.37.37,0,0,1,0-.53.58.58,0,0,1,.39-.1h.61V95.16h-1a.57.57,0,0,1-.38-.1.37.37,0,0,1,0-.54.57.57,0,0,1,.38-.1h1.93l5.44,9.2V95.16h-1.36a.57.57,0,0,1-.38-.1.34.34,0,0,1-.11-.27.35.35,0,0,1,.11-.27.56.56,0,0,1,.38-.1h2.72a.57.57,0,0,1,.38.1.37.37,0,0,1,0,.54.57.57,0,0,1-.38.1H404Z"/><path d="M413.34,104.69v-1.06A5.24,5.24,0,0,1,409.9,105a3,3,0,0,1-2.07-.67,2.13,2.13,0,0,1-.75-1.65,2.36,2.36,0,0,1,1-1.87,4.46,4.46,0,0,1,2.87-.8,10.14,10.14,0,0,1,1.11.07q.6.07,1.29.21V99.08a1.32,1.32,0,0,0-.56-1.05,2.67,2.67,0,0,0-1.69-.45,8.52,8.52,0,0,0-2.41.5,1.64,1.64,0,0,1-.36.09.32.32,0,0,1-.24-.1.37.37,0,0,1-.1-.26.32.32,0,0,1,.09-.24,3.05,3.05,0,0,1,1-.36,8.73,8.73,0,0,1,2.07-.37,3.18,3.18,0,0,1,2.18.69,2,2,0,0,1,.78,1.56V104h1a.58.58,0,0,1,.39.1.37.37,0,0,1,0,.53.56.56,0,0,1-.39.11Zm0-3.67a7,7,0,0,0-1.1-.22,10.11,10.11,0,0,0-1.22-.07,4,4,0,0,0-2.51.69,1.52,1.52,0,0,0-.68,1.24,1.43,1.43,0,0,0,.52,1.12,2.25,2.25,0,0,0,1.52.46,4.17,4.17,0,0,0,1.78-.38,6.42,6.42,0,0,0,1.69-1.22Z"/><path d="M418.64,97.09v.75a2.64,2.64,0,0,1,1.89-1,1.69,1.69,0,0,1,1,.3,2.27,2.27,0,0,1,.72.92,3.82,3.82,0,0,1,1-.92,2,2,0,0,1,1-.3,1.64,1.64,0,0,1,1.27.52,2.09,2.09,0,0,1,.62,1.46V104h.62a.57.57,0,0,1,.38.1.37.37,0,0,1,0,.53.55.55,0,0,1-.38.11h-1.36V98.87a1.31,1.31,0,0,0-.34-.93,1,1,0,0,0-.79-.37,1.54,1.54,0,0,0-.85.3,4.21,4.21,0,0,0-1,1.19V104H423a.57.57,0,0,1,.38.1.37.37,0,0,1,0,.53.55.55,0,0,1-.38.11h-1.36V98.93a1.39,1.39,0,0,0-.35-1,1,1,0,0,0-.78-.38,1.4,1.4,0,0,0-.78.25,4.48,4.48,0,0,0-1.12,1.24V104h.62a.57.57,0,0,1,.38.1.37.37,0,0,1,0,.53.55.55,0,0,1-.38.11h-2a.55.55,0,0,1-.38-.11.37.37,0,0,1,0-.53.56.56,0,0,1,.38-.1h.62V97.84h-.62a.55.55,0,0,1-.38-.11.35.35,0,0,1-.11-.27.34.34,0,0,1,.11-.26.55.55,0,0,1,.38-.11Z"/><path d="M436.77,101.07h-7.51a3.57,3.57,0,0,0,1.2,2.3,3.65,3.65,0,0,0,2.49.87,6,6,0,0,0,1.73-.27,4.45,4.45,0,0,0,1.47-.72.5.5,0,0,1,.29-.13.33.33,0,0,1,.25.11.36.36,0,0,1,.11.26.41.41,0,0,1-.14.29,3.93,3.93,0,0,1-1.5.82,6.54,6.54,0,0,1-2.21.38,4.34,4.34,0,0,1-3.16-1.24,4.05,4.05,0,0,1-1.27-3A3.7,3.7,0,0,1,429.71,98a4.07,4.07,0,0,1,2.94-1.15,4,4,0,0,1,3,1.18A4.11,4.11,0,0,1,436.77,101.07Zm-.75-.75a3.21,3.21,0,0,0-1.15-2,3.63,3.63,0,0,0-4.44,0,3.23,3.23,0,0,0-1.16,2Z"/></g><g id="shillowette"><rect x="25.58" y="44.5" width="13.5" height="20.75"/><rect x="48.83" y="44.5" width="98.25" height="20.75"/><rect x="168.83" y="44.5" width="118.75" height="20.75"/><rect x="306.33" y="44.5" width="130.5" height="20.75"/></g><g id="joins"><rect x="255.08" y="51.75" width="180.08" height="4.13"/><rect x="27.75" y="51.75" width="88.83" height="4.13"/><rect x="121" y="61.13" width="88.83" height="4.13"/><g class="cls-1"><rect x="25.58" y="90" width="13.5" height="20.75"/><rect x="48.83" y="90" width="98.25" height="20.75"/><rect x="168.83" y="90" width="118.75" height="20.75"/><rect x="308.33" y="90" width="130.5" height="20.75"/><rect x="247.08" y="97.25" width="183.25" height="4.13"/><rect x="27.75" y="97.25" width="88.83" height="4.13"/><rect x="121" y="106.63" width="88.83" height="4.13"/></g></g><g id="groupings"><rect class="cls-2" x="17.58" y="38.5" width="26" height="31"/><rect class="cls-2" x="43.58" y="38.5" width="108.83" height="31"/><rect class="cls-2" x="165.08" y="38.5" width="127.67" height="31"/><rect class="cls-2" x="302" y="38.5" width="140.42" height="31"/></g><g id="labels"><text class="cls-3" transform="translate(25.58 17.5)">atomic prefix</text><text class="cls-3" transform="translate(62.06 32.5)">block name</text><text class="cls-3" transform="translate(185.71 32.5)">element name</text><text class="cls-3" transform="translate(325.54 32.5)">modifier name</text><line class="cls-4" x1="38.42" y1="20.92" x2="30.58" y2="37.76"/></g></svg>