<svg xmlns="http://www.w3.org/2000/svg" viewBox="0 0 496 120.5"><defs><style>.cls-1{opacity:0.33;}.cls-2,.cls-4{fill:none;stroke:#d10000;stroke-width:3px;}.cls-2{stroke-miterlimit:10;}.cls-3{font-size:12px;fill:#9e0000;font-family:CourierNewPS-BoldMT, Courier New;font-weight:700;}.cls-4{stroke-linecap:round;stroke-linejoin:bevel;}</style></defs><title>classic-BEM-answer</title><g id="Layer_1" data-name="Layer 1"><path d="M22.74,56.08h.32a1.16,1.16,0,0,1,.84.35,1.19,1.19,0,0,1,0,1.69,1.17,1.17,0,0,1-.84.34h-.32a1.16,1.16,0,0,1-.84-.35,1.19,1.19,0,0,1,0-1.69A1.17,1.17,0,0,1,22.74,56.08Z"/><path d="M36.1,54.76H31.26l-1,2.69h1.41a.57.57,0,0,1,.38.1.37.37,0,0,1,0,.53.55.55,0,0,1-.38.11H28.93a.55.55,0,0,1-.38-.11.37.37,0,0,1,0-.53.57.57,0,0,1,.38-.1h.57l3.26-8.79H30.58a.57.57,0,0,1-.38-.1.37.37,0,0,1,0-.54.57.57,0,0,1,.38-.1h3.71l3.6,9.53h.57a.56.56,0,0,1,.38.1.37.37,0,0,1,0,.53.55.55,0,0,1-.38.11H35.71a.56.56,0,0,1-.39-.11.37.37,0,0,1,0-.53.58.58,0,0,1,.39-.1h1.4ZM35.82,54l-2-5.36h-.27l-2,5.36Z"/><path d="M48.22,52.58v1.05H40.7V52.58Z"/><path d="M52.47,47.18v4.89a4,4,0,0,1,3.22-1.74,3.73,3.73,0,0,1,2.76,1.17,4,4,0,0,1,1.15,2.87,4,4,0,0,1-1.16,2.91,3.72,3.72,0,0,1-2.75,1.19,3.88,3.88,0,0,1-3.22-1.74v1.45H50.74a.55.55,0,0,1-.38-.11.37.37,0,0,1,0-.53.57.57,0,0,1,.38-.1h1V47.93h-1a.55.55,0,0,1-.38-.11.35.35,0,0,1-.11-.27.34.34,0,0,1,.11-.26.55.55,0,0,1,.38-.11Zm6.4,7.23a3.24,3.24,0,0,0-1-2.36,3.07,3.07,0,0,0-4.48,0,3.4,3.4,0,0,0,0,4.73,3.07,3.07,0,0,0,4.48,0A3.24,3.24,0,0,0,58.87,54.41Z"/><path d="M66.4,47.18V57.46h2.9a.58.58,0,0,1,.39.1.37.37,0,0,1,0,.53.56.56,0,0,1-.39.11H62.77a.55.55,0,0,1-.38-.11.37.37,0,0,1,0-.53.57.57,0,0,1,.38-.1h2.9V47.93H63.54a.56.56,0,0,1-.38-.11.35.35,0,0,1-.12-.27.34.34,0,0,1,.11-.26.56.56,0,0,1,.39-.11Z"/><path d="M80.94,54.41a3.9,3.9,0,0,1-1.21,2.88,4.15,4.15,0,0,1-5.83,0,4,4,0,0,1,0-5.76,4.15,4.15,0,0,1,5.83,0A3.91,3.91,0,0,1,80.94,54.41Zm-.75,0a3.19,3.19,0,0,0-1-2.36,3.42,3.42,0,0,0-4.78,0,3.3,3.3,0,0,0,0,4.71,3.41,3.41,0,0,0,4.78,0A3.2,3.2,0,0,0,80.19,54.41Z"/><path d="M90.68,51.34v-.25a.56.56,0,0,1,.11-.39.34.34,0,0,1,.26-.11.35.35,0,0,1,.27.11.56.56,0,0,1,.11.39v1.67a.61.61,0,0,1-.11.39.37.37,0,0,1-.52,0,.52.52,0,0,1-.12-.34,1.72,1.72,0,0,0-.82-1.19,3.43,3.43,0,0,0-2.07-.56,3.05,3.05,0,0,0-2.49,1,3.58,3.58,0,0,0-.85,2.35,3.18,3.18,0,0,0,.94,2.36,3.3,3.3,0,0,0,2.43.93,5.22,5.22,0,0,0,1.75-.32,4.4,4.4,0,0,0,1.61-1,.51.51,0,0,1,.32-.18.34.34,0,0,1,.35.35q0,.38-.89,1a5.68,5.68,0,0,1-3.19.94,4,4,0,0,1-2.93-1.14,3.89,3.89,0,0,1-1.15-2.88,4,4,0,0,1,4.12-4.13A4.16,4.16,0,0,1,90.68,51.34Z"/><path d="M96.89,54.91v3.28H95.16a.55.55,0,0,1-.38-.11.37.37,0,0,1,0-.53.57.57,0,0,1,.38-.1h1V47.93h-1a.55.55,0,0,1-.38-.11.35.35,0,0,1-.11-.27.34.34,0,0,1,.11-.26.55.55,0,0,1,.38-.11h1.73V54L100,51.34h-.38a.55.55,0,0,1-.38-.1.34.34,0,0,1-.11-.26.35.35,0,0,1,.11-.27.55.55,0,0,1,.38-.11H102a.56.56,0,0,1,.39.11.35.35,0,0,1,.11.27.34.34,0,0,1-.11.26.56.56,0,0,1-.39.1h-.85l-2.88,2.4,3.64,3.71h.85a.58.58,0,0,1,.39.1.37.37,0,0,1,0,.53.56.56,0,0,1-.39.11h-2.39a.55.55,0,0,1-.38-.11.37.37,0,0,1,0-.53.57.57,0,0,1,.38-.1h.52L97.73,54.2Z"/><path d="M112.93,52.58v1.05h-7.52V52.58Z"/><path d="M117.57,50.59v1.11a5.31,5.31,0,0,1,1.4-1.08,3.21,3.21,0,0,1,1.4-.3,3.28,3.28,0,0,1,1.54.36,2.52,2.52,0,0,1,.89.87,2.26,2.26,0,0,1,.4,1.25v4.64h.62a.56.56,0,0,1,.38.1.37.37,0,0,1,0,.53.55.55,0,0,1-.38.11h-2a.56.56,0,0,1-.39-.11.37.37,0,0,1,0-.53.58.58,0,0,1,.39-.1h.61V52.94a1.75,1.75,0,0,0-.57-1.32,2.13,2.13,0,0,0-1.53-.54,2.59,2.59,0,0,0-1.26.29,6.78,6.78,0,0,0-1.53,1.46v4.62h.83a.57.57,0,0,1,.38.1.37.37,0,0,1,0,.53.55.55,0,0,1-.38.11H116a.55.55,0,0,1-.38-.11.37.37,0,0,1,0-.53.56.56,0,0,1,.38-.1h.83V51.34h-.62a.55.55,0,0,1-.38-.1.35.35,0,0,1-.11-.27.34.34,0,0,1,.11-.26.55.55,0,0,1,.38-.11Z"/><path d="M132.86,58.19V57.13a5.24,5.24,0,0,1-3.43,1.35,3,3,0,0,1-2.07-.67,2.13,2.13,0,0,1-.75-1.65,2.36,2.36,0,0,1,1-1.87,4.46,4.46,0,0,1,2.87-.8,10.12,10.12,0,0,1,1.11.07q.6.07,1.29.21V52.58a1.32,1.32,0,0,0-.56-1.05,2.67,2.67,0,0,0-1.68-.45,8.52,8.52,0,0,0-2.41.5,1.67,1.67,0,0,1-.36.09.32.32,0,0,1-.24-.1.37.37,0,0,1-.1-.26.32.32,0,0,1,.09-.24,3,3,0,0,1,1-.36,8.74,8.74,0,0,1,2.07-.37,3.18,3.18,0,0,1,2.18.69,2,2,0,0,1,.78,1.56v4.88h1a.58.58,0,0,1,.39.1.37.37,0,0,1,0,.53.56.56,0,0,1-.39.11Zm0-3.67a7,7,0,0,0-1.1-.22,10.13,10.13,0,0,0-1.22-.07,4,4,0,0,0-2.51.69,1.52,1.52,0,0,0-.68,1.24,1.43,1.43,0,0,0,.52,1.12,2.25,2.25,0,0,0,1.52.46,4.16,4.16,0,0,0,1.78-.38,6.4,6.4,0,0,0,1.69-1.22Z"/><path d="M138.17,50.59v.75a2.65,2.65,0,0,1,1.89-1,1.69,1.69,0,0,1,1,.3,2.27,2.27,0,0,1,.72.92,3.84,3.84,0,0,1,1-.92,2,2,0,0,1,1-.3,1.64,1.64,0,0,1,1.27.52,2.1,2.1,0,0,1,.62,1.46v5.15h.62a.56.56,0,0,1,.38.1.37.37,0,0,1,0,.53.55.55,0,0,1-.38.11h-1.36V52.37a1.31,1.31,0,0,0-.34-.93,1,1,0,0,0-.79-.37,1.53,1.53,0,0,0-.85.3,4.21,4.21,0,0,0-1,1.19v4.89h.61a.57.57,0,0,1,.38.1.37.37,0,0,1,0,.53.55.55,0,0,1-.38.11h-1.36V52.43a1.39,1.39,0,0,0-.35-1,1,1,0,0,0-.78-.38,1.41,1.41,0,0,0-.78.25,4.5,4.5,0,0,0-1.12,1.24v4.89h.62a.57.57,0,0,1,.38.1.37.37,0,0,1,0,.53.55.55,0,0,1-.38.11h-2a.55.55,0,0,1-.38-.11.37.37,0,0,1,0-.53.57.57,0,0,1,.38-.1h.62V51.34h-.62a.55.55,0,0,1-.38-.1.35.35,0,0,1-.11-.27.34.34,0,0,1,.11-.26.55.55,0,0,1,.38-.11Z"/><path d="M156.3,54.57h-7.51a3.57,3.57,0,0,0,1.2,2.3,3.66,3.66,0,0,0,2.49.87,6,6,0,0,0,1.73-.27,4.44,4.44,0,0,0,1.47-.72.5.5,0,0,1,.29-.13.33.33,0,0,1,.25.11.36.36,0,0,1,.1.26.41.41,0,0,1-.14.29,3.94,3.94,0,0,1-1.5.82,6.55,6.55,0,0,1-2.21.38,4.34,4.34,0,0,1-3.16-1.24,4.05,4.05,0,0,1-1.27-3,3.7,3.7,0,0,1,1.19-2.76,4.07,4.07,0,0,1,2.94-1.15,4,4,0,0,1,3,1.18A4.11,4.11,0,0,1,156.3,54.57Zm-.75-.75a3.21,3.21,0,0,0-1.15-2,3.63,3.63,0,0,0-4.44,0,3.23,3.23,0,0,0-1.16,2Z"/><path d="M168,63.12h-9.8a.56.56,0,0,1-.38-.1.37.37,0,0,1,0-.54.56.56,0,0,1,.38-.1H168a.56.56,0,0,1,.38.1.38.38,0,0,1,0,.54A.56.56,0,0,1,168,63.12Z"/><path d="M178.78,63.12H169a.56.56,0,0,1-.38-.1.37.37,0,0,1,0-.54.56.56,0,0,1,.38-.1h9.8a.56.56,0,0,1,.38.1.38.38,0,0,1,0,.54A.56.56,0,0,1,178.78,63.12Z"/><path d="M188.65,54.57h-7.51a3.57,3.57,0,0,0,1.2,2.3,3.66,3.66,0,0,0,2.49.87,6,6,0,0,0,1.73-.27,4.44,4.44,0,0,0,1.47-.72.5.5,0,0,1,.29-.13.33.33,0,0,1,.25.11.36.36,0,0,1,.1.26.41.41,0,0,1-.14.29,3.94,3.94,0,0,1-1.5.82,6.55,6.55,0,0,1-2.21.38,4.34,4.34,0,0,1-3.16-1.24,4.05,4.05,0,0,1-1.27-3,3.7,3.7,0,0,1,1.19-2.76,4.07,4.07,0,0,1,2.94-1.15,4,4,0,0,1,3,1.18A4.11,4.11,0,0,1,188.65,54.57Zm-.75-.75a3.21,3.21,0,0,0-1.15-2,3.63,3.63,0,0,0-4.44,0,3.23,3.23,0,0,0-1.16,2Z"/><path d="M195.82,47.18V57.46h2.9a.58.58,0,0,1,.39.1.37.37,0,0,1,0,.53.56.56,0,0,1-.39.11h-6.53a.55.55,0,0,1-.38-.11.37.37,0,0,1,0-.53.57.57,0,0,1,.38-.1h2.9V47.93H193a.56.56,0,0,1-.38-.11.35.35,0,0,1-.12-.27.34.34,0,0,1,.11-.26.56.56,0,0,1,.39-.11Z"/><path d="M210.22,54.57h-7.51a3.57,3.57,0,0,0,1.2,2.3,3.66,3.66,0,0,0,2.49.87,6,6,0,0,0,1.73-.27,4.44,4.44,0,0,0,1.47-.72.5.5,0,0,1,.29-.13.33.33,0,0,1,.25.11.36.36,0,0,1,.1.26.41.41,0,0,1-.14.29,3.94,3.94,0,0,1-1.5.82,6.55,6.55,0,0,1-2.21.38,4.34,4.34,0,0,1-3.16-1.24,4.05,4.05,0,0,1-1.27-3,3.7,3.7,0,0,1,1.19-2.76,4.07,4.07,0,0,1,2.94-1.15,4,4,0,0,1,3,1.18A4.11,4.11,0,0,1,210.22,54.57Zm-.75-.75a3.21,3.21,0,0,0-1.15-2,3.63,3.63,0,0,0-4.44,0,3.23,3.23,0,0,0-1.16,2Z"/><path d="M213.66,50.59v.75a2.65,2.65,0,0,1,1.89-1,1.69,1.69,0,0,1,1,.3,2.27,2.27,0,0,1,.72.92,3.84,3.84,0,0,1,1-.92,2,2,0,0,1,1-.3,1.64,1.64,0,0,1,1.27.52,2.1,2.1,0,0,1,.62,1.46v5.15h.62a.56.56,0,0,1,.38.1.37.37,0,0,1,0,.53.55.55,0,0,1-.38.11h-1.36V52.37a1.31,1.31,0,0,0-.34-.93,1,1,0,0,0-.79-.37,1.53,1.53,0,0,0-.85.3,4.21,4.21,0,0,0-1,1.19v4.89H218a.57.57,0,0,1,.38.1.37.37,0,0,1,0,.53.55.55,0,0,1-.38.11h-1.36V52.43a1.39,1.39,0,0,0-.35-1,1,1,0,0,0-.78-.38,1.41,1.41,0,0,0-.78.25,4.5,4.5,0,0,0-1.12,1.24v4.89h.62a.57.57,0,0,1,.38.1.37.37,0,0,1,0,.53.55.55,0,0,1-.38.11h-2a.55.55,0,0,1-.38-.11.37.37,0,0,1,0-.53.57.57,0,0,1,.38-.1h.62V51.34h-.62a.55.55,0,0,1-.38-.1.35.35,0,0,1-.11-.27.34.34,0,0,1,.11-.26.55.55,0,0,1,.38-.11Z"/><path d="M231.79,54.57h-7.51a3.57,3.57,0,0,0,1.2,2.3,3.66,3.66,0,0,0,2.49.87,6,6,0,0,0,1.73-.27,4.44,4.44,0,0,0,1.47-.72.5.5,0,0,1,.29-.13.33.33,0,0,1,.25.11.36.36,0,0,1,.1.26.41.41,0,0,1-.14.29,3.94,3.94,0,0,1-1.5.82,6.55,6.55,0,0,1-2.21.38,4.34,4.34,0,0,1-3.16-1.24,4.05,4.05,0,0,1-1.27-3,3.7,3.7,0,0,1,1.19-2.76,4.07,4.07,0,0,1,2.94-1.15,4,4,0,0,1,3,1.18A4.11,4.11,0,0,1,231.79,54.57Zm-.75-.75a3.21,3.21,0,0,0-1.15-2,3.63,3.63,0,0,0-4.44,0,3.23,3.23,0,0,0-1.16,2Z"/><path d="M236.2,50.59v1.11a5.31,5.31,0,0,1,1.4-1.08,3.21,3.21,0,0,1,1.4-.3,3.28,3.28,0,0,1,1.54.36,2.52,2.52,0,0,1,.89.87,2.26,2.26,0,0,1,.4,1.25v4.64h.62a.56.56,0,0,1,.38.1.37.37,0,0,1,0,.53.55.55,0,0,1-.38.11h-2a.56.56,0,0,1-.39-.11.37.37,0,0,1,0-.53.58.58,0,0,1,.39-.1h.61V52.94a1.75,1.75,0,0,0-.57-1.32,2.13,2.13,0,0,0-1.53-.54,2.59,2.59,0,0,0-1.26.29,6.78,6.78,0,0,0-1.53,1.46v4.62H237a.57.57,0,0,1,.38.1.37.37,0,0,1,0,.53.55.55,0,0,1-.38.11h-2.4a.55.55,0,0,1-.38-.11.37.37,0,0,1,0-.53.56.56,0,0,1,.38-.1h.83V51.34h-.62a.55.55,0,0,1-.38-.1.35.35,0,0,1-.11-.27.34.34,0,0,1,.11-.26.55.55,0,0,1,.38-.11Z"/><path d="M247.86,50.59h4a.55.55,0,0,1,.38.11.35.35,0,0,1,.11.27.34.34,0,0,1-.11.26.55.55,0,0,1-.38.1h-4v4.91a1.34,1.34,0,0,0,.51,1.07,2.29,2.29,0,0,0,1.5.43,6.49,6.49,0,0,0,1.61-.22,5.49,5.49,0,0,0,1.35-.5.57.57,0,0,1,.29-.11.33.33,0,0,1,.25.11.36.36,0,0,1,.1.26.35.35,0,0,1-.11.25,3.67,3.67,0,0,1-1.36.63,7,7,0,0,1-2.08.34,3.21,3.21,0,0,1-2.05-.61,2,2,0,0,1-.76-1.63V51.34h-1.36a.55.55,0,0,1-.38-.1.35.35,0,0,1-.11-.27.34.34,0,0,1,.11-.26.55.55,0,0,1,.38-.11h1.36V48.42a.55.55,0,0,1,.1-.38.35.35,0,0,1,.26-.11.35.35,0,0,1,.27.11.55.55,0,0,1,.1.38Z"/><path d="M263.92,52.58v1.05h-7.52V52.58Z"/><path d="M268.56,50.59v1.11a5.31,5.31,0,0,1,1.4-1.08,3.21,3.21,0,0,1,1.4-.3,3.28,3.28,0,0,1,1.54.36,2.52,2.52,0,0,1,.89.87,2.25,2.25,0,0,1,.4,1.25v4.64h.62a.56.56,0,0,1,.38.1.37.37,0,0,1,0,.53.55.55,0,0,1-.38.11h-2a.56.56,0,0,1-.39-.11.37.37,0,0,1,0-.53.58.58,0,0,1,.39-.1h.61V52.94a1.75,1.75,0,0,0-.57-1.32,2.13,2.13,0,0,0-1.53-.54,2.58,2.58,0,0,0-1.26.29,6.77,6.77,0,0,0-1.53,1.46v4.62h.83a.57.57,0,0,1,.38.1.37.37,0,0,1,0,.53.55.55,0,0,1-.38.11H267a.55.55,0,0,1-.38-.11.37.37,0,0,1,0-.53.57.57,0,0,1,.38-.1h.83V51.34h-.62a.55.55,0,0,1-.38-.1.35.35,0,0,1-.11-.27.34.34,0,0,1,.11-.26.55.55,0,0,1,.38-.11Z"/><path d="M283.84,58.19V57.13a5.24,5.24,0,0,1-3.43,1.35,3,3,0,0,1-2.07-.67,2.13,2.13,0,0,1-.75-1.65,2.36,2.36,0,0,1,1-1.87,4.46,4.46,0,0,1,2.87-.8,10.13,10.13,0,0,1,1.11.07q.6.07,1.29.21V52.58a1.32,1.32,0,0,0-.56-1.05,2.67,2.67,0,0,0-1.69-.45,8.53,8.53,0,0,0-2.41.5,1.65,1.65,0,0,1-.36.09.32.32,0,0,1-.24-.1.37.37,0,0,1-.1-.26.32.32,0,0,1,.09-.24,3,3,0,0,1,1-.36,8.74,8.74,0,0,1,2.07-.37,3.18,3.18,0,0,1,2.18.69,2,2,0,0,1,.78,1.56v4.88h1a.58.58,0,0,1,.39.1.37.37,0,0,1,0,.53.56.56,0,0,1-.39.11Zm0-3.67a7,7,0,0,0-1.1-.22,10.11,10.11,0,0,0-1.22-.07,4,4,0,0,0-2.51.69,1.52,1.52,0,0,0-.68,1.24,1.44,1.44,0,0,0,.52,1.12,2.25,2.25,0,0,0,1.52.46,4.16,4.16,0,0,0,1.78-.38,6.4,6.4,0,0,0,1.69-1.22Z"/><path d="M289.15,50.59v.75a2.65,2.65,0,0,1,1.89-1,1.69,1.69,0,0,1,1,.3,2.28,2.28,0,0,1,.72.92,3.84,3.84,0,0,1,1-.92,2,2,0,0,1,1-.3,1.64,1.64,0,0,1,1.27.52,2.09,2.09,0,0,1,.62,1.46v5.15h.62a.57.57,0,0,1,.38.1.37.37,0,0,1,0,.53.55.55,0,0,1-.38.11h-1.36V52.37a1.31,1.31,0,0,0-.34-.93,1,1,0,0,0-.79-.37,1.53,1.53,0,0,0-.85.3,4.21,4.21,0,0,0-1,1.19v4.89h.61a.57.57,0,0,1,.38.1.37.37,0,0,1,0,.53.55.55,0,0,1-.38.11h-1.36V52.43a1.39,1.39,0,0,0-.35-1,1,1,0,0,0-.78-.38,1.41,1.41,0,0,0-.78.25,4.49,4.49,0,0,0-1.12,1.24v4.89h.62a.57.57,0,0,1,.38.1.37.37,0,0,1,0,.53.55.55,0,0,1-.38.11h-2a.55.55,0,0,1-.38-.11.37.37,0,0,1,0-.53.56.56,0,0,1,.38-.1h.62V51.34h-.62a.55.55,0,0,1-.38-.1.35.35,0,0,1-.11-.27.34.34,0,0,1,.11-.26.55.55,0,0,1,.38-.11Z"/><path d="M307.28,54.57h-7.51a3.57,3.57,0,0,0,1.2,2.3,3.66,3.66,0,0,0,2.49.87,6,6,0,0,0,1.73-.27,4.45,4.45,0,0,0,1.47-.72.5.5,0,0,1,.29-.13.33.33,0,0,1,.25.11.36.36,0,0,1,.11.26.41.41,0,0,1-.14.29,3.94,3.94,0,0,1-1.5.82,6.55,6.55,0,0,1-2.21.38,4.34,4.34,0,0,1-3.16-1.24,4.05,4.05,0,0,1-1.27-3,3.7,3.7,0,0,1,1.19-2.76,4.07,4.07,0,0,1,2.94-1.15,4,4,0,0,1,3,1.18A4.11,4.11,0,0,1,307.28,54.57Zm-.75-.75a3.21,3.21,0,0,0-1.15-2,3.63,3.63,0,0,0-4.44,0,3.23,3.23,0,0,0-1.16,2Z"/><path d="M317.84,52.58v1.05h-7.52V52.58Z"/><path d="M328.62,52.58v1.05H321.1V52.58Z"/><path d="M332.29,50.59v.75a2.65,2.65,0,0,1,1.89-1,1.69,1.69,0,0,1,1,.3,2.28,2.28,0,0,1,.72.92,3.84,3.84,0,0,1,1-.92,2,2,0,0,1,1-.3,1.64,1.64,0,0,1,1.27.52,2.09,2.09,0,0,1,.62,1.46v5.15h.62a.57.57,0,0,1,.38.1.37.37,0,0,1,0,.53.55.55,0,0,1-.38.11h-1.36V52.37a1.31,1.31,0,0,0-.34-.93,1,1,0,0,0-.79-.37,1.53,1.53,0,0,0-.85.3,4.21,4.21,0,0,0-1,1.19v4.89h.61a.57.57,0,0,1,.38.1.37.37,0,0,1,0,.53.55.55,0,0,1-.38.11h-1.36V52.43a1.39,1.39,0,0,0-.35-1,1,1,0,0,0-.78-.38,1.41,1.41,0,0,0-.78.25,4.49,4.49,0,0,0-1.12,1.24v4.89h.62a.57.57,0,0,1,.38.1.37.37,0,0,1,0,.53.55.55,0,0,1-.38.11h-2a.55.55,0,0,1-.38-.11.37.37,0,0,1,0-.53.56.56,0,0,1,.38-.1h.62V51.34h-.62a.55.55,0,0,1-.38-.1.35.35,0,0,1-.11-.27.34.34,0,0,1,.11-.26.55.55,0,0,1,.38-.11Z"/><path d="M350.55,54.41a3.9,3.9,0,0,1-1.21,2.88,4.15,4.15,0,0,1-5.83,0,4,4,0,0,1,0-5.76,4.15,4.15,0,0,1,5.83,0A3.91,3.91,0,0,1,350.55,54.41Zm-.75,0a3.19,3.19,0,0,0-1-2.36,3.42,3.42,0,0,0-4.78,0,3.3,3.3,0,0,0,0,4.71,3.41,3.41,0,0,0,4.78,0A3.2,3.2,0,0,0,349.8,54.41Z"/><path d="M360.82,47.18V57.46h1a.58.58,0,0,1,.39.1.37.37,0,0,1,0,.53.56.56,0,0,1-.39.11h-1.73V56.73a3.88,3.88,0,0,1-3.25,1.75,3.84,3.84,0,0,1-3.37-2,4.14,4.14,0,0,1,0-4.06,3.82,3.82,0,0,1,1.45-1.51,3.77,3.77,0,0,1,1.93-.54,3.93,3.93,0,0,1,3.25,1.75V47.93h-1a.56.56,0,0,1-.39-.11.35.35,0,0,1-.11-.27.34.34,0,0,1,.11-.26.56.56,0,0,1,.39-.11Zm-.75,7.23a3.25,3.25,0,0,0-.95-2.37,3.13,3.13,0,0,0-4.52,0,3.43,3.43,0,0,0,0,4.73,3.12,3.12,0,0,0,4.52,0A3.26,3.26,0,0,0,360.08,54.41Z"/><path d="M368.39,50.59v6.86h2.9a.58.58,0,0,1,.39.1.37.37,0,0,1,0,.53.56.56,0,0,1-.39.11h-6.53a.55.55,0,0,1-.38-.11.37.37,0,0,1,0-.53.57.57,0,0,1,.38-.1h2.9V51.34H365.5a.57.57,0,0,1-.38-.1A.34.34,0,0,1,365,51a.35.35,0,0,1,.11-.27.56.56,0,0,1,.39-.11Zm0-3.78v1.9h-1.09v-1.9Z"/><path d="M378.29,51.34v6.12h3.24a.57.57,0,0,1,.38.1.37.37,0,0,1,0,.53.55.55,0,0,1-.38.11h-5.77a.55.55,0,0,1-.38-.11.37.37,0,0,1,0-.53.56.56,0,0,1,.38-.1h1.78V51.34H376a.55.55,0,0,1-.38-.1.35.35,0,0,1-.11-.27.34.34,0,0,1,.11-.26.55.55,0,0,1,.38-.11h1.6V49.48a2.11,2.11,0,0,1,.75-1.61,2.86,2.86,0,0,1,2-.68,13.93,13.93,0,0,1,2.23.19,1.14,1.14,0,0,1,.54.17.35.35,0,0,1,.09.25.34.34,0,0,1-.11.26.39.39,0,0,1-.28.1l-.24,0a15.31,15.31,0,0,0-2.24-.2,2.14,2.14,0,0,0-1.49.47,1.43,1.43,0,0,0-.52,1.08v1.11h3.45a.55.55,0,0,1,.38.11.36.36,0,0,1,.11.27.35.35,0,0,1-.11.26.55.55,0,0,1-.38.1Z"/><path d="M390,50.59v6.86h2.9a.58.58,0,0,1,.39.1.37.37,0,0,1,0,.53.56.56,0,0,1-.39.11h-6.53a.55.55,0,0,1-.38-.11.37.37,0,0,1,0-.53.57.57,0,0,1,.38-.1h2.9V51.34h-2.15a.57.57,0,0,1-.38-.1.34.34,0,0,1-.12-.26.35.35,0,0,1,.11-.27.56.56,0,0,1,.39-.11Zm0-3.78v1.9h-1.09v-1.9Z"/><path d="M404.34,54.57h-7.51a3.57,3.57,0,0,0,1.2,2.3,3.66,3.66,0,0,0,2.49.87,6,6,0,0,0,1.73-.27,4.45,4.45,0,0,0,1.47-.72.5.5,0,0,1,.29-.13.33.33,0,0,1,.25.11.36.36,0,0,1,.11.26.41.41,0,0,1-.14.29,3.94,3.94,0,0,1-1.5.82,6.55,6.55,0,0,1-2.21.38,4.34,4.34,0,0,1-3.16-1.24,4.05,4.05,0,0,1-1.27-3,3.7,3.7,0,0,1,1.19-2.76,4.07,4.07,0,0,1,2.94-1.15,4,4,0,0,1,3,1.18A4.11,4.11,0,0,1,404.34,54.57Zm-.75-.75a3.21,3.21,0,0,0-1.15-2,3.63,3.63,0,0,0-4.44,0,3.23,3.23,0,0,0-1.16,2Z"/><path d="M410.25,50.59v1.86a12.39,12.39,0,0,1,2.15-1.67,2.89,2.89,0,0,1,1.32-.37,1.94,1.94,0,0,1,1.22.44q.57.44.57.67a.37.37,0,0,1-.39.39.33.33,0,0,1-.15,0,1.24,1.24,0,0,1-.23-.2,2.23,2.23,0,0,0-.54-.42,1,1,0,0,0-.45-.11,2.47,2.47,0,0,0-1.16.39,17.35,17.35,0,0,0-2.36,1.89v4h3.26a.58.58,0,0,1,.39.1.37.37,0,0,1,0,.53.57.57,0,0,1-.39.11h-5.78a.57.57,0,0,1-.38-.1.35.35,0,0,1,0-.51.56.56,0,0,1,.38-.1h1.78V51.34h-1.36a.55.55,0,0,1-.38-.1.35.35,0,0,1-.11-.27.35.35,0,0,1,.11-.26.55.55,0,0,1,.38-.11Z"/><path d="M425.68,52.58v1.05h-7.52V52.58Z"/><path d="M430.32,50.59v1.11a5.31,5.31,0,0,1,1.4-1.08,3.21,3.21,0,0,1,1.4-.3,3.28,3.28,0,0,1,1.54.36,2.52,2.52,0,0,1,.89.87,2.25,2.25,0,0,1,.4,1.25v4.64h.62a.56.56,0,0,1,.38.1.37.37,0,0,1,0,.53.55.55,0,0,1-.38.11h-2a.56.56,0,0,1-.39-.11.37.37,0,0,1,0-.53.58.58,0,0,1,.39-.1h.61V52.94a1.75,1.75,0,0,0-.57-1.32,2.13,2.13,0,0,0-1.53-.54,2.58,2.58,0,0,0-1.26.29,6.77,6.77,0,0,0-1.53,1.46v4.62h.83a.57.57,0,0,1,.38.1.37.37,0,0,1,0,.53.55.55,0,0,1-.38.11h-2.4a.55.55,0,0,1-.38-.11.37.37,0,0,1,0-.53.57.57,0,0,1,.38-.1h.83V51.34H429a.55.55,0,0,1-.38-.1.35.35,0,0,1-.11-.27.34.34,0,0,1,.11-.26.55.55,0,0,1,.38-.11Z"/><path d="M445.61,58.19V57.13a5.24,5.24,0,0,1-3.43,1.35,3,3,0,0,1-2.07-.67,2.13,2.13,0,0,1-.75-1.65,2.36,2.36,0,0,1,1-1.87,4.46,4.46,0,0,1,2.87-.8,10.13,10.13,0,0,1,1.11.07q.6.07,1.29.21V52.58a1.32,1.32,0,0,0-.56-1.05,2.67,2.67,0,0,0-1.69-.45,8.53,8.53,0,0,0-2.41.5,1.65,1.65,0,0,1-.36.09.32.32,0,0,1-.24-.1.37.37,0,0,1-.1-.26.32.32,0,0,1,.09-.24,3,3,0,0,1,1-.36,8.74,8.74,0,0,1,2.07-.37,3.18,3.18,0,0,1,2.18.69,2,2,0,0,1,.78,1.56v4.88h1a.58.58,0,0,1,.39.1.37.37,0,0,1,0,.53.56.56,0,0,1-.39.11Zm0-3.67a7,7,0,0,0-1.1-.22,10.11,10.11,0,0,0-1.22-.07,4,4,0,0,0-2.51.69,1.52,1.52,0,0,0-.68,1.24,1.44,1.44,0,0,0,.52,1.12,2.25,2.25,0,0,0,1.52.46,4.16,4.16,0,0,0,1.78-.38,6.4,6.4,0,0,0,1.69-1.22Z"/><path d="M450.91,50.59v.75a2.65,2.65,0,0,1,1.89-1,1.69,1.69,0,0,1,1,.3,2.28,2.28,0,0,1,.72.92,3.84,3.84,0,0,1,1-.92,2,2,0,0,1,1-.3,1.64,1.64,0,0,1,1.27.52,2.09,2.09,0,0,1,.62,1.46v5.15H459a.57.57,0,0,1,.38.1.37.37,0,0,1,0,.53.55.55,0,0,1-.38.11h-1.36V52.37a1.31,1.31,0,0,0-.34-.93,1,1,0,0,0-.79-.37,1.53,1.53,0,0,0-.85.3,4.21,4.21,0,0,0-1,1.19v4.89h.61a.57.57,0,0,1,.38.1.37.37,0,0,1,0,.53.55.55,0,0,1-.38.11h-1.36V52.43a1.39,1.39,0,0,0-.35-1,1,1,0,0,0-.78-.38,1.41,1.41,0,0,0-.78.25,4.49,4.49,0,0,0-1.12,1.24v4.89h.62a.57.57,0,0,1,.38.1.37.37,0,0,1,0,.53.55.55,0,0,1-.38.11h-2a.55.55,0,0,1-.38-.11.37.37,0,0,1,0-.53.56.56,0,0,1,.38-.1h.62V51.34h-.62a.55.55,0,0,1-.38-.1.35.35,0,0,1-.11-.27.34.34,0,0,1,.11-.26.55.55,0,0,1,.38-.11Z"/><path d="M469,54.57h-7.51a3.57,3.57,0,0,0,1.2,2.3,3.66,3.66,0,0,0,2.49.87,6,6,0,0,0,1.73-.27,4.45,4.45,0,0,0,1.47-.72.5.5,0,0,1,.29-.13.33.33,0,0,1,.25.11.36.36,0,0,1,.11.26.41.41,0,0,1-.14.29,3.94,3.94,0,0,1-1.5.82,6.55,6.55,0,0,1-2.21.38,4.34,4.34,0,0,1-3.16-1.24,4.05,4.05,0,0,1-1.27-3A3.7,3.7,0,0,1,462,51.48a4.07,4.07,0,0,1,2.94-1.15,4,4,0,0,1,3,1.18A4.11,4.11,0,0,1,469,54.57Zm-.75-.75a3.21,3.21,0,0,0-1.15-2,3.63,3.63,0,0,0-4.44,0,3.23,3.23,0,0,0-1.16,2Z"/></g><g id="shillowette"><rect x="25.5" y="43.5" width="13.5" height="20.75"/><rect x="48.75" y="43.5" width="55.25" height="20.75"/><rect x="114.75" y="43.5" width="43" height="20.75"/><rect x="179.25" y="43.5" width="76.5" height="20.75"/><rect x="265.25" y="43.5" width="43.5" height="20.75"/><rect x="329.5" y="43.5" width="87.75" height="20.75"/><rect x="427" y="43.5" width="44.25" height="20.75"/></g><g id="joins"><rect x="247" y="50.75" width="222.67" height="4.13"/><rect x="27.67" y="50.75" width="88.83" height="4.13"/><rect x="120.92" y="60.13" width="88.83" height="4.13"/><path d="M22.36,97h.32a1.16,1.16,0,0,1,.84.35,1.19,1.19,0,0,1,0,1.69,1.17,1.17,0,0,1-.84.34h-.32a1.16,1.16,0,0,1-.84-.35,1.19,1.19,0,0,1,0-1.69A1.17,1.17,0,0,1,22.36,97Z"/><path d="M35.73,95.7H30.88l-1,2.69h1.41a.57.57,0,0,1,.38.1.37.37,0,0,1,0,.53.55.55,0,0,1-.38.11H28.55a.55.55,0,0,1-.38-.11.37.37,0,0,1,0-.53.57.57,0,0,1,.38-.1h.57l3.26-8.79H30.2a.57.57,0,0,1-.38-.1.37.37,0,0,1,0-.54.57.57,0,0,1,.38-.1h3.71l3.6,9.53h.57a.56.56,0,0,1,.38.1.37.37,0,0,1,0,.53.55.55,0,0,1-.38.11H35.33a.56.56,0,0,1-.39-.11.37.37,0,0,1,0-.53.58.58,0,0,1,.39-.1h1.4ZM35.45,95l-2-5.36h-.27l-2,5.36Z"/><path d="M47.85,93.53v1.05H40.33V93.53Z"/><path d="M52.09,88.12V93a4,4,0,0,1,3.22-1.74,3.73,3.73,0,0,1,2.76,1.17,4,4,0,0,1,1.15,2.87,4,4,0,0,1-1.16,2.91,3.72,3.72,0,0,1-2.75,1.19,3.88,3.88,0,0,1-3.22-1.74v1.45H50.37A.55.55,0,0,1,50,99a.37.37,0,0,1,0-.53.57.57,0,0,1,.38-.1h1V88.87h-1a.55.55,0,0,1-.38-.11.35.35,0,0,1-.11-.27.34.34,0,0,1,.11-.26.55.55,0,0,1,.38-.11Zm6.4,7.23a3.24,3.24,0,0,0-1-2.36,3.07,3.07,0,0,0-4.48,0,3.4,3.4,0,0,0,0,4.73,3.07,3.07,0,0,0,4.48,0A3.24,3.24,0,0,0,58.49,95.35Z"/><path d="M66,88.12V98.4h2.9a.58.58,0,0,1,.39.1.37.37,0,0,1,0,.53.56.56,0,0,1-.39.11H62.4A.55.55,0,0,1,62,99a.37.37,0,0,1,0-.53.57.57,0,0,1,.38-.1h2.9V88.87H63.17a.56.56,0,0,1-.38-.11.35.35,0,0,1-.12-.27.34.34,0,0,1,.11-.26.56.56,0,0,1,.39-.11Z"/><path d="M80.56,95.35a3.9,3.9,0,0,1-1.21,2.88,4.15,4.15,0,0,1-5.83,0,4,4,0,0,1,0-5.76,4.15,4.15,0,0,1,5.83,0A3.91,3.91,0,0,1,80.56,95.35Zm-.75,0a3.19,3.19,0,0,0-1-2.36A3.42,3.42,0,0,0,74,93a3.3,3.3,0,0,0,0,4.71,3.41,3.41,0,0,0,4.78,0A3.2,3.2,0,0,0,79.81,95.35Z"/><path d="M90.3,92.28V92a.56.56,0,0,1,.11-.39.34.34,0,0,1,.26-.11.35.35,0,0,1,.27.11A.56.56,0,0,1,91,92V93.7a.61.61,0,0,1-.11.39.37.37,0,0,1-.52,0,.52.52,0,0,1-.12-.34,1.72,1.72,0,0,0-.82-1.19A3.43,3.43,0,0,0,87.41,92a3.05,3.05,0,0,0-2.49,1,3.58,3.58,0,0,0-.85,2.35A3.18,3.18,0,0,0,85,97.76a3.3,3.3,0,0,0,2.43.93,5.22,5.22,0,0,0,1.75-.32,4.4,4.4,0,0,0,1.61-1,.51.51,0,0,1,.32-.18.34.34,0,0,1,.35.35q0,.38-.89,1a5.68,5.68,0,0,1-3.19.94,4,4,0,0,1-2.93-1.14,3.89,3.89,0,0,1-1.15-2.88,4,4,0,0,1,4.12-4.13A4.16,4.16,0,0,1,90.3,92.28Z"/><path d="M96.51,95.85v3.28H94.79a.55.55,0,0,1-.38-.11.37.37,0,0,1,0-.53.57.57,0,0,1,.38-.1h1V88.87h-1a.55.55,0,0,1-.38-.11.35.35,0,0,1-.11-.27.34.34,0,0,1,.11-.26.55.55,0,0,1,.38-.11h1.73v6.79l3.13-2.63h-.38a.55.55,0,0,1-.38-.1.34.34,0,0,1-.11-.26.35.35,0,0,1,.11-.27.55.55,0,0,1,.38-.11h2.36a.56.56,0,0,1,.39.11.35.35,0,0,1,.11.27.34.34,0,0,1-.11.26.56.56,0,0,1-.39.1h-.85l-2.88,2.4,3.64,3.71h.85a.58.58,0,0,1,.39.1.37.37,0,0,1,0,.53.56.56,0,0,1-.39.11H100a.55.55,0,0,1-.38-.11.37.37,0,0,1,0-.53.57.57,0,0,1,.38-.1h.52l-3.17-3.26Z"/><path d="M112.56,93.53v1.05H105V93.53Z"/><path d="M117.2,91.54v1.11a5.31,5.31,0,0,1,1.4-1.08,3.21,3.21,0,0,1,1.4-.3,3.28,3.28,0,0,1,1.54.36,2.52,2.52,0,0,1,.89.87,2.26,2.26,0,0,1,.4,1.25V98.4h.62a.56.56,0,0,1,.38.1.37.37,0,0,1,0,.53.55.55,0,0,1-.38.11h-2a.56.56,0,0,1-.39-.11.37.37,0,0,1,0-.53.58.58,0,0,1,.39-.1h.61V93.88a1.75,1.75,0,0,0-.57-1.32A2.13,2.13,0,0,0,120,92a2.59,2.59,0,0,0-1.26.29,6.78,6.78,0,0,0-1.53,1.46V98.4H118a.57.57,0,0,1,.38.1.37.37,0,0,1,0,.53.55.55,0,0,1-.38.11h-2.4a.55.55,0,0,1-.38-.11.37.37,0,0,1,0-.53.56.56,0,0,1,.38-.1h.83V92.28h-.62a.55.55,0,0,1-.38-.1.35.35,0,0,1-.11-.27.34.34,0,0,1,.11-.26.55.55,0,0,1,.38-.11Z"/><path d="M132.48,99.13V98.07a5.24,5.24,0,0,1-3.43,1.35,3,3,0,0,1-2.07-.67,2.13,2.13,0,0,1-.75-1.65,2.36,2.36,0,0,1,1-1.87,4.46,4.46,0,0,1,2.87-.8,10.12,10.12,0,0,1,1.11.07q.6.07,1.29.21V93.52a1.32,1.32,0,0,0-.56-1.05,2.67,2.67,0,0,0-1.68-.45,8.52,8.52,0,0,0-2.41.5,1.67,1.67,0,0,1-.36.09.32.32,0,0,1-.24-.1.37.37,0,0,1-.1-.26.32.32,0,0,1,.09-.24,3,3,0,0,1,1-.36,8.74,8.74,0,0,1,2.07-.37,3.18,3.18,0,0,1,2.18.69,2,2,0,0,1,.78,1.56V98.4h1a.58.58,0,0,1,.39.1.37.37,0,0,1,0,.53.56.56,0,0,1-.39.11Zm0-3.67a7,7,0,0,0-1.1-.22,10.13,10.13,0,0,0-1.22-.07,4,4,0,0,0-2.51.69,1.52,1.52,0,0,0-.68,1.24,1.43,1.43,0,0,0,.52,1.12,2.25,2.25,0,0,0,1.52.46,4.16,4.16,0,0,0,1.78-.38,6.4,6.4,0,0,0,1.69-1.22Z"/><path d="M137.79,91.54v.75a2.65,2.65,0,0,1,1.89-1,1.69,1.69,0,0,1,1,.3,2.27,2.27,0,0,1,.72.92,3.84,3.84,0,0,1,1-.92,2,2,0,0,1,1-.3,1.64,1.64,0,0,1,1.27.52,2.1,2.1,0,0,1,.62,1.46V98.4h.62a.56.56,0,0,1,.38.1.37.37,0,0,1,0,.53.55.55,0,0,1-.38.11h-1.36V93.32a1.31,1.31,0,0,0-.34-.93,1,1,0,0,0-.79-.37,1.53,1.53,0,0,0-.85.3,4.21,4.21,0,0,0-1,1.19V98.4h.61a.57.57,0,0,1,.38.1.37.37,0,0,1,0,.53.55.55,0,0,1-.38.11h-1.36V93.37a1.39,1.39,0,0,0-.35-1,1,1,0,0,0-.78-.38,1.41,1.41,0,0,0-.78.25,4.5,4.5,0,0,0-1.12,1.24V98.4h.62a.57.57,0,0,1,.38.1.37.37,0,0,1,0,.53.55.55,0,0,1-.38.11h-2a.55.55,0,0,1-.38-.11.37.37,0,0,1,0-.53.57.57,0,0,1,.38-.1h.62V92.28h-.62a.55.55,0,0,1-.38-.1.35.35,0,0,1-.11-.27.34.34,0,0,1,.11-.26.55.55,0,0,1,.38-.11Z"/><path d="M155.92,95.51h-7.51a3.57,3.57,0,0,0,1.2,2.3,3.66,3.66,0,0,0,2.49.87,6,6,0,0,0,1.73-.27,4.44,4.44,0,0,0,1.47-.72.5.5,0,0,1,.29-.13.33.33,0,0,1,.25.11.36.36,0,0,1,.1.26.41.41,0,0,1-.14.29,3.94,3.94,0,0,1-1.5.82,6.55,6.55,0,0,1-2.21.38,4.34,4.34,0,0,1-3.16-1.24,4.05,4.05,0,0,1-1.27-3,3.7,3.7,0,0,1,1.19-2.76,4.07,4.07,0,0,1,2.94-1.15,4,4,0,0,1,3,1.18A4.11,4.11,0,0,1,155.92,95.51Zm-.75-.75a3.21,3.21,0,0,0-1.15-2,3.63,3.63,0,0,0-4.44,0,3.23,3.23,0,0,0-1.16,2Z"/><path d="M167.62,104.06h-9.8a.56.56,0,0,1-.38-.1.37.37,0,0,1,0-.54.56.56,0,0,1,.38-.1h9.8a.56.56,0,0,1,.38.1.38.38,0,0,1,0,.54A.56.56,0,0,1,167.62,104.06Z"/><path d="M178.4,104.06h-9.8a.56.56,0,0,1-.38-.1.37.37,0,0,1,0-.54.56.56,0,0,1,.38-.1h9.8a.56.56,0,0,1,.38.1.38.38,0,0,1,0,.54A.56.56,0,0,1,178.4,104.06Z"/><path d="M188.28,95.51h-7.51a3.57,3.57,0,0,0,1.2,2.3,3.66,3.66,0,0,0,2.49.87,6,6,0,0,0,1.73-.27,4.44,4.44,0,0,0,1.47-.72.5.5,0,0,1,.29-.13.33.33,0,0,1,.25.11.36.36,0,0,1,.1.26.41.41,0,0,1-.14.29,3.94,3.94,0,0,1-1.5.82,6.55,6.55,0,0,1-2.21.38,4.34,4.34,0,0,1-3.16-1.24,4.05,4.05,0,0,1-1.27-3,3.7,3.7,0,0,1,1.19-2.76,4.07,4.07,0,0,1,2.94-1.15,4,4,0,0,1,3,1.18A4.11,4.11,0,0,1,188.28,95.51Zm-.75-.75a3.21,3.21,0,0,0-1.15-2,3.63,3.63,0,0,0-4.44,0,3.23,3.23,0,0,0-1.16,2Z"/><path d="M195.45,88.12V98.4h2.9a.58.58,0,0,1,.39.1.37.37,0,0,1,0,.53.56.56,0,0,1-.39.11h-6.53a.55.55,0,0,1-.38-.11.37.37,0,0,1,0-.53.57.57,0,0,1,.38-.1h2.9V88.87h-2.12a.56.56,0,0,1-.38-.11.35.35,0,0,1-.12-.27.34.34,0,0,1,.11-.26.56.56,0,0,1,.39-.11Z"/><path d="M209.85,95.51h-7.51a3.57,3.57,0,0,0,1.2,2.3,3.66,3.66,0,0,0,2.49.87,6,6,0,0,0,1.73-.27,4.44,4.44,0,0,0,1.47-.72.5.5,0,0,1,.29-.13.33.33,0,0,1,.25.11.36.36,0,0,1,.1.26.41.41,0,0,1-.14.29,3.94,3.94,0,0,1-1.5.82,6.55,6.55,0,0,1-2.21.38,4.34,4.34,0,0,1-3.16-1.24,4.05,4.05,0,0,1-1.27-3,3.7,3.7,0,0,1,1.19-2.76,4.07,4.07,0,0,1,2.94-1.15,4,4,0,0,1,3,1.18A4.11,4.11,0,0,1,209.85,95.51Zm-.75-.75a3.21,3.21,0,0,0-1.15-2,3.63,3.63,0,0,0-4.44,0,3.23,3.23,0,0,0-1.16,2Z"/><path d="M213.29,91.54v.75a2.65,2.65,0,0,1,1.89-1,1.69,1.69,0,0,1,1,.3,2.27,2.27,0,0,1,.72.92,3.84,3.84,0,0,1,1-.92,2,2,0,0,1,1-.3,1.64,1.64,0,0,1,1.27.52,2.1,2.1,0,0,1,.62,1.46V98.4h.62a.56.56,0,0,1,.38.1.37.37,0,0,1,0,.53.55.55,0,0,1-.38.11h-1.36V93.32a1.31,1.31,0,0,0-.34-.93,1,1,0,0,0-.79-.37,1.53,1.53,0,0,0-.85.3,4.21,4.21,0,0,0-1,1.19V98.4h.61a.57.57,0,0,1,.38.1.37.37,0,0,1,0,.53.55.55,0,0,1-.38.11h-1.36V93.37a1.39,1.39,0,0,0-.35-1,1,1,0,0,0-.78-.38,1.41,1.41,0,0,0-.78.25,4.5,4.5,0,0,0-1.12,1.24V98.4h.62a.57.57,0,0,1,.38.1.37.37,0,0,1,0,.53.55.55,0,0,1-.38.11h-2a.55.55,0,0,1-.38-.11.37.37,0,0,1,0-.53.57.57,0,0,1,.38-.1h.62V92.28h-.62a.55.55,0,0,1-.38-.1.35.35,0,0,1-.11-.27.34.34,0,0,1,.11-.26.55.55,0,0,1,.38-.11Z"/><path d="M231.41,95.51H223.9a3.57,3.57,0,0,0,1.2,2.3,3.66,3.66,0,0,0,2.49.87,6,6,0,0,0,1.73-.27,4.44,4.44,0,0,0,1.47-.72.5.5,0,0,1,.29-.13.33.33,0,0,1,.25.11.36.36,0,0,1,.1.26.41.41,0,0,1-.14.29,3.94,3.94,0,0,1-1.5.82,6.55,6.55,0,0,1-2.21.38,4.34,4.34,0,0,1-3.16-1.24,4.05,4.05,0,0,1-1.27-3,3.7,3.7,0,0,1,1.19-2.76,4.07,4.07,0,0,1,2.94-1.15,4,4,0,0,1,3,1.18A4.11,4.11,0,0,1,231.41,95.51Zm-.75-.75a3.21,3.21,0,0,0-1.15-2,3.63,3.63,0,0,0-4.44,0,3.23,3.23,0,0,0-1.16,2Z"/><path d="M235.83,91.54v1.11a5.31,5.31,0,0,1,1.4-1.08,3.21,3.21,0,0,1,1.4-.3,3.28,3.28,0,0,1,1.54.36,2.52,2.52,0,0,1,.89.87,2.26,2.26,0,0,1,.4,1.25V98.4h.62a.56.56,0,0,1,.38.1.37.37,0,0,1,0,.53.55.55,0,0,1-.38.11h-2a.56.56,0,0,1-.39-.11.37.37,0,0,1,0-.53.58.58,0,0,1,.39-.1h.61V93.88a1.75,1.75,0,0,0-.57-1.32,2.13,2.13,0,0,0-1.53-.54,2.59,2.59,0,0,0-1.26.29,6.78,6.78,0,0,0-1.53,1.46V98.4h.83a.57.57,0,0,1,.38.1.37.37,0,0,1,0,.53.55.55,0,0,1-.38.11h-2.4a.55.55,0,0,1-.38-.11.37.37,0,0,1,0-.53.56.56,0,0,1,.38-.1h.83V92.28h-.62a.55.55,0,0,1-.38-.1.35.35,0,0,1-.11-.27.34.34,0,0,1,.11-.26.55.55,0,0,1,.38-.11Z"/><path d="M247.48,91.54h4a.55.55,0,0,1,.38.11.35.35,0,0,1,.11.27.34.34,0,0,1-.11.26.55.55,0,0,1-.38.1h-4v4.91a1.34,1.34,0,0,0,.51,1.07,2.29,2.29,0,0,0,1.5.43,6.49,6.49,0,0,0,1.61-.22,5.49,5.49,0,0,0,1.35-.5.57.57,0,0,1,.29-.11A.33.33,0,0,1,253,98a.36.36,0,0,1,.1.26.35.35,0,0,1-.11.25,3.67,3.67,0,0,1-1.36.63,7,7,0,0,1-2.08.34,3.21,3.21,0,0,1-2.05-.61,2,2,0,0,1-.76-1.63V92.28h-1.36a.55.55,0,0,1-.38-.1.35.35,0,0,1-.11-.27.34.34,0,0,1,.11-.26.55.55,0,0,1,.38-.11h1.36V89.36a.55.55,0,0,1,.1-.38.35.35,0,0,1,.26-.11.35.35,0,0,1,.27.11.55.55,0,0,1,.1.38Z"/><path d="M263.54,93.53v1.05H256V93.53Z"/><path d="M268.18,91.54v1.11a5.31,5.31,0,0,1,1.4-1.08,3.21,3.21,0,0,1,1.4-.3,3.28,3.28,0,0,1,1.54.36,2.52,2.52,0,0,1,.89.87,2.25,2.25,0,0,1,.4,1.25V98.4h.62a.56.56,0,0,1,.38.1.37.37,0,0,1,0,.53.55.55,0,0,1-.38.11h-2a.56.56,0,0,1-.39-.11.37.37,0,0,1,0-.53.58.58,0,0,1,.39-.1h.61V93.88a1.75,1.75,0,0,0-.57-1.32A2.13,2.13,0,0,0,271,92a2.58,2.58,0,0,0-1.26.29,6.77,6.77,0,0,0-1.53,1.46V98.4H269a.57.57,0,0,1,.38.1.37.37,0,0,1,0,.53.55.55,0,0,1-.38.11h-2.4a.55.55,0,0,1-.38-.11.37.37,0,0,1,0-.53.57.57,0,0,1,.38-.1h.83V92.28h-.62a.55.55,0,0,1-.38-.1.35.35,0,0,1-.11-.27.34.34,0,0,1,.11-.26.55.55,0,0,1,.38-.11Z"/><path d="M283.47,99.13V98.07A5.24,5.24,0,0,1,280,99.42a3,3,0,0,1-2.07-.67,2.13,2.13,0,0,1-.75-1.65,2.36,2.36,0,0,1,1-1.87,4.46,4.46,0,0,1,2.87-.8,10.13,10.13,0,0,1,1.11.07q.6.07,1.29.21V93.52a1.32,1.32,0,0,0-.56-1.05,2.67,2.67,0,0,0-1.69-.45,8.53,8.53,0,0,0-2.41.5,1.65,1.65,0,0,1-.36.09.32.32,0,0,1-.24-.1.37.37,0,0,1-.1-.26.32.32,0,0,1,.09-.24,3,3,0,0,1,1-.36,8.74,8.74,0,0,1,2.07-.37,3.18,3.18,0,0,1,2.18.69,2,2,0,0,1,.78,1.56V98.4h1a.58.58,0,0,1,.39.1.37.37,0,0,1,0,.53.56.56,0,0,1-.39.11Zm0-3.67a7,7,0,0,0-1.1-.22,10.11,10.11,0,0,0-1.22-.07,4,4,0,0,0-2.51.69,1.52,1.52,0,0,0-.68,1.24,1.44,1.44,0,0,0,.52,1.12,2.25,2.25,0,0,0,1.52.46,4.16,4.16,0,0,0,1.78-.38,6.4,6.4,0,0,0,1.69-1.22Z"/><path d="M288.78,91.54v.75a2.65,2.65,0,0,1,1.89-1,1.69,1.69,0,0,1,1,.3,2.28,2.28,0,0,1,.72.92,3.84,3.84,0,0,1,1-.92,2,2,0,0,1,1-.3,1.64,1.64,0,0,1,1.27.52,2.09,2.09,0,0,1,.62,1.46V98.4h.62a.57.57,0,0,1,.38.1.37.37,0,0,1,0,.53.55.55,0,0,1-.38.11h-1.36V93.32a1.31,1.31,0,0,0-.34-.93,1,1,0,0,0-.79-.37,1.53,1.53,0,0,0-.85.3,4.21,4.21,0,0,0-1,1.19V98.4h.61a.57.57,0,0,1,.38.1.37.37,0,0,1,0,.53.55.55,0,0,1-.38.11H291.8V93.37a1.39,1.39,0,0,0-.35-1,1,1,0,0,0-.78-.38,1.41,1.41,0,0,0-.78.25,4.49,4.49,0,0,0-1.12,1.24V98.4h.62a.57.57,0,0,1,.38.1.37.37,0,0,1,0,.53.55.55,0,0,1-.38.11h-2A.55.55,0,0,1,287,99a.37.37,0,0,1,0-.53.56.56,0,0,1,.38-.1H288V92.28h-.62a.55.55,0,0,1-.38-.1.35.35,0,0,1-.11-.27.34.34,0,0,1,.11-.26.55.55,0,0,1,.38-.11Z"/><path d="M306.91,95.51h-7.51a3.57,3.57,0,0,0,1.2,2.3,3.66,3.66,0,0,0,2.49.87,6,6,0,0,0,1.73-.27,4.45,4.45,0,0,0,1.47-.72.5.5,0,0,1,.29-.13.33.33,0,0,1,.25.11.36.36,0,0,1,.11.26.41.41,0,0,1-.14.29,3.94,3.94,0,0,1-1.5.82,6.55,6.55,0,0,1-2.21.38,4.34,4.34,0,0,1-3.16-1.24,4.05,4.05,0,0,1-1.27-3,3.7,3.7,0,0,1,1.19-2.76,4.07,4.07,0,0,1,2.94-1.15,4,4,0,0,1,3,1.18A4.11,4.11,0,0,1,306.91,95.51Zm-.75-.75a3.21,3.21,0,0,0-1.15-2,3.63,3.63,0,0,0-4.44,0,3.23,3.23,0,0,0-1.16,2Z"/><path d="M317.46,93.53v1.05h-7.52V93.53Z"/><path d="M328.25,93.53v1.05h-7.52V93.53Z"/><path d="M331.91,91.54v.75a2.65,2.65,0,0,1,1.89-1,1.69,1.69,0,0,1,1,.3,2.28,2.28,0,0,1,.72.92,3.84,3.84,0,0,1,1-.92,2,2,0,0,1,1-.3,1.64,1.64,0,0,1,1.27.52,2.09,2.09,0,0,1,.62,1.46V98.4H340a.57.57,0,0,1,.38.1.37.37,0,0,1,0,.53.55.55,0,0,1-.38.11h-1.36V93.32a1.31,1.31,0,0,0-.34-.93,1,1,0,0,0-.79-.37,1.53,1.53,0,0,0-.85.3,4.21,4.21,0,0,0-1,1.19V98.4h.61a.57.57,0,0,1,.38.1.37.37,0,0,1,0,.53.55.55,0,0,1-.38.11h-1.36V93.37a1.39,1.39,0,0,0-.35-1,1,1,0,0,0-.78-.38,1.41,1.41,0,0,0-.78.25,4.49,4.49,0,0,0-1.12,1.24V98.4h.62a.57.57,0,0,1,.38.1.37.37,0,0,1,0,.53.55.55,0,0,1-.38.11h-2a.55.55,0,0,1-.38-.11.37.37,0,0,1,0-.53.56.56,0,0,1,.38-.1h.62V92.28h-.62a.55.55,0,0,1-.38-.1.35.35,0,0,1-.11-.27.34.34,0,0,1,.11-.26.55.55,0,0,1,.38-.11Z"/><path d="M350.17,95.35A3.9,3.9,0,0,1,349,98.23a4.15,4.15,0,0,1-5.83,0,4,4,0,0,1,0-5.76,4.15,4.15,0,0,1,5.83,0A3.91,3.91,0,0,1,350.17,95.35Zm-.75,0a3.19,3.19,0,0,0-1-2.36,3.42,3.42,0,0,0-4.78,0,3.3,3.3,0,0,0,0,4.71,3.41,3.41,0,0,0,4.78,0A3.2,3.2,0,0,0,349.43,95.35Z"/><path d="M360.45,88.12V98.4h1a.58.58,0,0,1,.39.1.37.37,0,0,1,0,.53.56.56,0,0,1-.39.11H359.7V97.67a3.88,3.88,0,0,1-3.25,1.75,3.84,3.84,0,0,1-3.37-2,4.14,4.14,0,0,1,0-4.06,3.82,3.82,0,0,1,1.45-1.51,3.77,3.77,0,0,1,1.93-.54A3.93,3.93,0,0,1,359.7,93V88.87h-1a.56.56,0,0,1-.39-.11.35.35,0,0,1-.11-.27.34.34,0,0,1,.11-.26.56.56,0,0,1,.39-.11Zm-.75,7.23a3.25,3.25,0,0,0-.95-2.37,3.13,3.13,0,0,0-4.52,0,3.43,3.43,0,0,0,0,4.73,3.12,3.12,0,0,0,4.52,0A3.26,3.26,0,0,0,359.7,95.35Z"/><path d="M368,91.54V98.4h2.9a.58.58,0,0,1,.39.1.37.37,0,0,1,0,.53.56.56,0,0,1-.39.11h-6.53A.55.55,0,0,1,364,99a.37.37,0,0,1,0-.53.57.57,0,0,1,.38-.1h2.9V92.28h-2.15a.57.57,0,0,1-.38-.1.34.34,0,0,1-.12-.26.35.35,0,0,1,.11-.27.56.56,0,0,1,.39-.11Zm0-3.78v1.9H366.9v-1.9Z"/><path d="M377.92,92.28V98.4h3.24a.57.57,0,0,1,.38.1.37.37,0,0,1,0,.53.55.55,0,0,1-.38.11h-5.77A.55.55,0,0,1,375,99a.37.37,0,0,1,0-.53.56.56,0,0,1,.38-.1h1.78V92.28h-1.6a.55.55,0,0,1-.38-.1.35.35,0,0,1-.11-.27.34.34,0,0,1,.11-.26.55.55,0,0,1,.38-.11h1.6V90.42a2.11,2.11,0,0,1,.75-1.61,2.86,2.86,0,0,1,2-.68,13.93,13.93,0,0,1,2.23.19,1.14,1.14,0,0,1,.54.17.35.35,0,0,1,.09.25.34.34,0,0,1-.11.26.39.39,0,0,1-.28.1l-.24,0a15.31,15.31,0,0,0-2.24-.2,2.14,2.14,0,0,0-1.49.47,1.43,1.43,0,0,0-.52,1.08v1.11h3.45a.55.55,0,0,1,.38.11.36.36,0,0,1,.11.27.35.35,0,0,1-.11.26.55.55,0,0,1-.38.1Z"/><path d="M389.58,91.54V98.4h2.9a.58.58,0,0,1,.39.1.37.37,0,0,1,0,.53.56.56,0,0,1-.39.11h-6.53a.55.55,0,0,1-.38-.11.37.37,0,0,1,0-.53.57.57,0,0,1,.38-.1h2.9V92.28h-2.15a.57.57,0,0,1-.38-.1.34.34,0,0,1-.12-.26.35.35,0,0,1,.11-.27.56.56,0,0,1,.39-.11Zm0-3.78v1.9h-1.09v-1.9Z"/><path d="M404,95.51h-7.51a3.57,3.57,0,0,0,1.2,2.3,3.66,3.66,0,0,0,2.49.87,6,6,0,0,0,1.73-.27,4.45,4.45,0,0,0,1.47-.72.5.5,0,0,1,.29-.13.33.33,0,0,1,.25.11.36.36,0,0,1,.11.26.41.41,0,0,1-.14.29,3.94,3.94,0,0,1-1.5.82,6.55,6.55,0,0,1-2.21.38A4.34,4.34,0,0,1,397,98.18a4.05,4.05,0,0,1-1.27-3,3.7,3.7,0,0,1,1.19-2.76,4.07,4.07,0,0,1,2.94-1.15,4,4,0,0,1,3,1.18A4.11,4.11,0,0,1,404,95.51Zm-.75-.75a3.21,3.21,0,0,0-1.15-2,3.63,3.63,0,0,0-4.44,0,3.23,3.23,0,0,0-1.16,2Z"/><path d="M409.88,91.54V93.4A12.39,12.39,0,0,1,412,91.72a2.89,2.89,0,0,1,1.32-.37,1.94,1.94,0,0,1,1.22.44q.57.44.57.67a.37.37,0,0,1-.39.39.33.33,0,0,1-.15,0,1.24,1.24,0,0,1-.23-.2,2.23,2.23,0,0,0-.54-.42,1,1,0,0,0-.45-.11,2.47,2.47,0,0,0-1.16.39,17.35,17.35,0,0,0-2.36,1.89v4h3.26a.58.58,0,0,1,.39.1.37.37,0,0,1,0,.53.57.57,0,0,1-.39.11h-5.78A.57.57,0,0,1,407,99a.35.35,0,0,1,0-.51.56.56,0,0,1,.38-.1h1.78V92.28h-1.36a.55.55,0,0,1-.38-.1.35.35,0,0,1-.11-.27.35.35,0,0,1,.11-.26.55.55,0,0,1,.38-.11Z"/><path d="M425.3,93.53v1.05h-7.52V93.53Z"/><path d="M429.94,91.54v1.11a5.31,5.31,0,0,1,1.4-1.08,3.21,3.21,0,0,1,1.4-.3,3.28,3.28,0,0,1,1.54.36,2.52,2.52,0,0,1,.89.87,2.25,2.25,0,0,1,.4,1.25V98.4h.62a.56.56,0,0,1,.38.1.37.37,0,0,1,0,.53.55.55,0,0,1-.38.11h-2a.56.56,0,0,1-.39-.11.37.37,0,0,1,0-.53.58.58,0,0,1,.39-.1h.61V93.88a1.75,1.75,0,0,0-.57-1.32,2.13,2.13,0,0,0-1.53-.54,2.58,2.58,0,0,0-1.26.29,6.77,6.77,0,0,0-1.53,1.46V98.4h.83a.57.57,0,0,1,.38.1.37.37,0,0,1,0,.53.55.55,0,0,1-.38.11h-2.4A.55.55,0,0,1,428,99a.37.37,0,0,1,0-.53.57.57,0,0,1,.38-.1h.83V92.28h-.62a.55.55,0,0,1-.38-.1.35.35,0,0,1-.11-.27.34.34,0,0,1,.11-.26.55.55,0,0,1,.38-.11Z"/><path d="M445.23,99.13V98.07a5.24,5.24,0,0,1-3.43,1.35,3,3,0,0,1-2.07-.67,2.13,2.13,0,0,1-.75-1.65,2.36,2.36,0,0,1,1-1.87,4.46,4.46,0,0,1,2.87-.8,10.13,10.13,0,0,1,1.11.07q.6.07,1.29.21V93.52a1.32,1.32,0,0,0-.56-1.05A2.67,2.67,0,0,0,443,92a8.53,8.53,0,0,0-2.41.5,1.65,1.65,0,0,1-.36.09.32.32,0,0,1-.24-.1.37.37,0,0,1-.1-.26A.32.32,0,0,1,440,92a3,3,0,0,1,1-.36,8.74,8.74,0,0,1,2.07-.37,3.18,3.18,0,0,1,2.18.69,2,2,0,0,1,.78,1.56V98.4h1a.58.58,0,0,1,.39.1.37.37,0,0,1,0,.53.56.56,0,0,1-.39.11Zm0-3.67a7,7,0,0,0-1.1-.22,10.11,10.11,0,0,0-1.22-.07,4,4,0,0,0-2.51.69,1.52,1.52,0,0,0-.68,1.24,1.44,1.44,0,0,0,.52,1.12,2.25,2.25,0,0,0,1.52.46,4.16,4.16,0,0,0,1.78-.38,6.4,6.4,0,0,0,1.69-1.22Z"/><path d="M450.54,91.54v.75a2.65,2.65,0,0,1,1.89-1,1.69,1.69,0,0,1,1,.3,2.28,2.28,0,0,1,.72.92,3.84,3.84,0,0,1,1-.92,2,2,0,0,1,1-.3,1.64,1.64,0,0,1,1.27.52,2.09,2.09,0,0,1,.62,1.46V98.4h.62a.57.57,0,0,1,.38.1.37.37,0,0,1,0,.53.55.55,0,0,1-.38.11h-1.36V93.32a1.31,1.31,0,0,0-.34-.93,1,1,0,0,0-.79-.37,1.53,1.53,0,0,0-.85.3,4.21,4.21,0,0,0-1,1.19V98.4h.61a.57.57,0,0,1,.38.1.37.37,0,0,1,0,.53.55.55,0,0,1-.38.11h-1.36V93.37a1.39,1.39,0,0,0-.35-1,1,1,0,0,0-.78-.38,1.41,1.41,0,0,0-.78.25,4.49,4.49,0,0,0-1.12,1.24V98.4h.62a.57.57,0,0,1,.38.1.37.37,0,0,1,0,.53.55.55,0,0,1-.38.11h-2a.55.55,0,0,1-.38-.11.37.37,0,0,1,0-.53.56.56,0,0,1,.38-.1h.62V92.28h-.62a.55.55,0,0,1-.38-.1.35.35,0,0,1-.11-.27.34.34,0,0,1,.11-.26.55.55,0,0,1,.38-.11Z"/><path d="M468.67,95.51h-7.51a3.57,3.57,0,0,0,1.2,2.3,3.66,3.66,0,0,0,2.49.87,6,6,0,0,0,1.73-.27A4.45,4.45,0,0,0,468,97.7a.5.5,0,0,1,.29-.13.33.33,0,0,1,.25.11.36.36,0,0,1,.11.26.41.41,0,0,1-.14.29A3.94,3.94,0,0,1,467,99a6.55,6.55,0,0,1-2.21.38,4.34,4.34,0,0,1-3.16-1.24,4.05,4.05,0,0,1-1.27-3,3.7,3.7,0,0,1,1.19-2.76,4.07,4.07,0,0,1,2.94-1.15,4,4,0,0,1,3,1.18A4.11,4.11,0,0,1,468.67,95.51Zm-.75-.75a3.21,3.21,0,0,0-1.15-2,3.63,3.63,0,0,0-4.44,0,3.23,3.23,0,0,0-1.16,2Z"/><g class="cls-1"><rect x="25.12" y="84.44" width="13.5" height="20.75"/><rect x="48.37" y="84.44" width="55.25" height="20.75"/><rect x="114.37" y="84.44" width="43" height="20.75"/><rect x="178.87" y="84.44" width="76.5" height="20.75"/><rect x="264.87" y="84.44" width="43.5" height="20.75"/><rect x="329.12" y="84.44" width="87.75" height="20.75"/><rect x="426.62" y="84.44" width="44.25" height="20.75"/><rect x="246.62" y="91.69" width="222.67" height="4.13"/><rect x="27.29" y="91.69" width="88.83" height="4.13"/><rect x="120.54" y="101.07" width="88.83" height="4.13"/></g></g><g id="groupings"><rect class="cls-2" x="17.5" y="37.5" width="26" height="31"/><rect class="cls-2" x="43.5" y="37.5" width="118.5" height="31"/><rect class="cls-2" x="176" y="37.5" width="136" height="31"/><rect class="cls-2" x="326.5" y="37.5" width="149.5" height="31"/></g><g id="labels"><text class="cls-3" transform="translate(25.5 16.5)">atomic prefix</text><text class="cls-3" transform="translate(66.81 31.5)">block name</text><text class="cls-3" transform="translate(200.79 31.5)">element name</text><text class="cls-3" transform="translate(354.44 31.5)">modifier name</text><line class="cls-4" x1="38.34" y1="19.92" x2="30.5" y2="36.76"/></g></svg>